<?xml version="1.0" standalone="no"?>
<!DOCTYPE svg PUBLIC "-//W3C//DTD SVG 1.1//EN" "http://www.w3.org/Graphics/SVG/1.1/DTD/svg11.dtd">
<svg xmlns="http://www.w3.org/2000/svg">
<defs >
<font id="Comfortaa" horiz-adv-x="1003" ><font-face
    font-family="Comfortaa"
    units-per-em="2048"
    panose-1="2 15 6 3 7 2 0 6 0 3"
    ascent="2080"
    descent="-480"
    alphabetic="0" />
<glyph unicode=" " glyph-name="space" horiz-adv-x="560" />
<glyph unicode="!" glyph-name="exclam" horiz-adv-x="400" d="M320 120Q320 70 285 35T200 0Q150 0 115 35T80 120Q80 170 115 205T200 240Q250 240 285 205T320 120ZM120 1520Q120 1553 143 1576T200 1600Q233 1600 256 1577T280 1520V399Q280 367 257 344Q233
320 200 320Q167 320 144 344Q120 367 120 399V1520Z" />
<glyph unicode="&quot;" glyph-name="quotedbl" horiz-adv-x="560" d="M220 1220Q220 1195 203 1178T160 1160Q135 1160 118 1177T100 1220L80 1512V1520Q80 1553 103 1576T160 1600Q193 1600 216 1577T240 1520V1512L220 1220ZM460 1220Q460 1195 443 1178T400
1160Q375 1160 358 1177T340 1220L320 1512V1520Q320 1553 343 1576T400 1600Q433 1600 456 1577T480 1520V1512L460 1220Z" />
<glyph unicode="#" glyph-name="numbersign" horiz-adv-x="1280" d="M389 80Q383 47 356 24T295 0Q262 0 243 23T229 80L300 480H140Q107 480 88 504Q73 521 73 545Q73 552 74 560Q80 593 107 616T168 640H328L384 960H224Q191 960 172 983T158 1040Q164 1073
192 1096T253 1120H413L483 1520Q489 1553 516 1576T577 1600Q610 1600 629 1577T643 1520L573 1120H813L883 1520Q889 1553 916 1576T977 1600Q1010 1600 1029 1577T1043 1520L973 1120H1133Q1166 1120 1185 1097Q1199 1079 1199 1055Q1199 1048 1198 1040Q1193
1007 1165 984T1104 960H944L888 640H1048Q1081 640 1100 617T1114 560Q1108 527 1081 504T1020 480H860L789 80Q783 47 756 24T695 0Q662 0 643 23T629 80L700 480H460L389 80ZM544 960L488 640H728L784 960H544Z" />
<glyph unicode="$" glyph-name="dollar" horiz-adv-x="1060" d="M480 1Q470 1 460 2Q262 18 134 170Q113 193 96 219Q80 240 80 267Q80 300 103 323T160 347Q203 347 228 310Q240 291 256 274Q341 172 480 161V805Q346 831 254 939Q147 1065 160 1231Q174 1396
300 1503Q382 1572 480 1591V1680Q480 1713 503 1736T560 1760Q593 1760 616 1737T640 1680V1590Q773 1564 864 1457Q886 1431 903 1403Q915 1384 915 1360Q915 1327 892 1304T835 1280Q802 1280 779 1304Q770 1312 765 1321Q755 1337 742 1353Q698 1404 640 1424V940Q772
902 867 791Q980 657 980 487Q980 464 978 441Q962 243 811 115Q732 48 640 20V-80Q640 -113 617 -136T560 -160Q527 -160 504 -137T480 -80V1ZM480 1425Q439 1411 404 1381Q328 1316 320 1218Q312 1119 377 1043Q420 991 480 971V1425ZM640 192Q675 209 707 237Q808
322 819 454Q830 587 745 688Q699 741 640 769V192Z" />
<glyph unicode="%" glyph-name="percent" horiz-adv-x="1760" d="M880 1200Q880 1034 763 917T480 800Q314 800 197 917T80 1200Q80 1366 197 1483T480 1600Q646 1600 763 1483T880 1200ZM880 400Q880 566 997 683T1280 800Q1446 800 1563 683T1680 400Q1680 234
1563 117T1280 0Q1114 0 997 117T880 400ZM480 1440Q381 1440 311 1370T240 1200Q240 1101 310 1031T480 960Q579 960 649 1030T720 1200Q720 1299 650 1369T480 1440ZM1280 640Q1181 640 1111 570T1040 400Q1040 301 1110 231T1280 160Q1379 160 1449 230T1520
400Q1520 499 1450 569T1280 640ZM320 0Q287 0 264 23T240 80Q240 111 260 134L1375 1567Q1403 1600 1440 1600Q1473 1600 1496 1577T1520 1520Q1520 1493 1504 1472L381 27Q353 0 320 0Z" />
<glyph unicode="&amp;" glyph-name="ampersand" horiz-adv-x="1440" d="M378 1099L502 974L621 1068Q720 1147 720 1240Q720 1323 662 1381T520 1440Q437 1440 379 1382T320 1240Q320 1157 378 1099ZM857 391L485 764L372 678Q240 576 240 460Q240 324 322 242T520
160Q636 160 718 242L857 391ZM613 863L967 508L1144 697Q1167 720 1200 720Q1233 720 1256 697T1280 640Q1280 609 1260 586L1080 395L1338 134Q1360 112 1360 80Q1360 47 1337 24T1280 0Q1248 0 1224 22L970 277L831 129Q702 0 520 0Q338 0 209 129T80 460Q80
642 269 791L375 874L265 985Q160 1091 160 1240Q160 1389 265 1494T520 1600Q669 1600 774 1495T880 1240Q880 1081 734 955L613 863Z" />
<glyph unicode="&apos;" glyph-name="quotesingle" horiz-adv-x="320" d="M220 1220Q220 1195 203 1178T160 1160Q135 1160 118 1177T100 1220L80 1512V1520Q80 1553 103 1576T160 1600Q193 1600 216 1577T240 1520V1512L220 1220Z" />
<glyph unicode="(" glyph-name="parenleft" horiz-adv-x="560" d="M323 1547Q329 1563 342 1577Q366 1600 399 1600Q432 1600 455 1577T479 1520Q477 1496 466 1477Q238 1019 238 561Q238 101 468 -359Q479 -377 479 -400Q479 -433 456 -456T399 -480Q366 -480
342 -456Q330 -442 323 -426Q80 69 80 562Q80 1055 323 1547Z" />
<glyph unicode=")" glyph-name="parenright" horiz-adv-x="560" d="M236 1547Q480 1055 480 562Q480 69 236 -426Q228 -442 217 -456Q193 -480 160 -480Q127 -480 104 -457T80 -400Q80 -377 91 -359Q321 101 321 561Q321 1019 93 1477Q82 1496 80 1520Q80 1553
103 1576T160 1600Q193 1600 217 1577Q230 1563 236 1547Z" />
<glyph unicode="*" glyph-name="asterisk" horiz-adv-x="780" d="M361 1271L166 1279Q152 1280 139 1284Q108 1295 94 1325Q85 1342 85 1360Q85 1373 90 1386Q101 1418 131 1432T192 1435Q206 1430 216 1422L373 1305L315 1493Q311 1506 311 1520Q311 1553 334
1576T391 1600Q424 1600 447 1577T471 1520Q471 1506 467 1493L409 1304L567 1422Q578 1430 591 1435Q622 1446 652 1432T693 1386Q698 1372 698 1359Q698 1342 690 1325Q676 1295 645 1284Q631 1280 618 1279L422 1271L583 1159Q594 1152 603 1140Q623 1114 619
1081T589 1028Q567 1011 530 1012Q497 1016 477 1042Q468 1053 464 1066L392 1247L319 1066Q315 1053 306 1042Q286 1011 242 1011Q216 1011 194 1028Q168 1048 164 1081T180 1140Q189 1152 200 1159L361 1271Z" />
<glyph unicode="+" glyph-name="plus" horiz-adv-x="1120" d="M480 1200Q480 1233 503 1256T560 1280Q593 1280 616 1257T640 1200V880H960Q993 880 1016 857T1040 800Q1040 767 1017 744T960 720H640V400Q640 367 617 344T560 320Q527 320 504 343T480 400V720H160Q127
720 104 743T80 800Q80 833 103 856T160 880H480V1200Z" />
<glyph unicode="," glyph-name="comma" horiz-adv-x="400" d="M115 35Q80 70 80 120Q80 170 115 205T200 240Q250 240 285 205T320 120Q320 -76 233 -208Q215 -240 180 -240Q155 -240 138 -223T120 -180Q120 -155 137 -138Q207 -60 115 35Z" />
<glyph unicode="-" glyph-name="hyphen" horiz-adv-x="800" d="M160 480Q127 480 104 503T80 560Q80 593 103 616T160 640H640Q673 640 696 617T720 560Q720 527 697 504T640 480H160Z" />
<glyph unicode="." glyph-name="period" horiz-adv-x="400" d="M320 120Q320 70 285 35T200 0Q150 0 115 35T80 120Q80 170 115 205T200 240Q250 240 285 205T320 120Z" />
<glyph unicode="/" glyph-name="slash" horiz-adv-x="960" d="M744 1577Q767 1600 800 1600Q833 1600 856 1577T880 1520Q880 1502 873 1486L233 -114Q227 -126 217 -136Q193 -160 160 -160Q127 -160 104 -137T80 -80Q80 -62 87 -46L727 1554Q733 1566 744 1577Z" />
<glyph unicode="0" glyph-name="zero" horiz-adv-x="1120" d="M80 800Q80 1280 277 1483Q394 1600 560 1600Q726 1600 843 1483Q1040 1280 1040 800Q1040 320 843 117Q726 0 560 0Q394 0 277 117Q80 320 80 800ZM560 1440Q461 1440 390 1369Q240 1200 240 800Q240
400 390 231Q461 160 560 160Q659 160 730 231Q880 400 880 800Q880 1200 730 1369Q659 1440 560 1440Z" />
<glyph unicode="1" glyph-name="one" horiz-adv-x="560" d="M480 80Q480 47 457 24T400 0Q367 0 344 23T320 80V1409L191 1366Q176 1360 160 1360Q127 1360 104 1383T80 1440Q80 1473 104 1497Q116 1509 131 1515L371 1595Q384 1600 400 1600Q433 1600 456 1577T480
1520V80Z" />
<glyph unicode="2" glyph-name="two" horiz-adv-x="1120" d="M960 160Q993 160 1016 137T1040 80Q1040 47 1017 24T960 0H160Q127 0 104 23T80 80Q80 113 103 137L786 893Q880 987 880 1120Q880 1253 787 1346T560 1440Q427 1440 334 1347T240 1120Q240 1087 217
1064T160 1040Q127 1040 104 1063T80 1120Q80 1319 220 1459T560 1600Q759 1600 899 1460T1040 1120Q1040 921 899 780L341 160H960Z" />
<glyph unicode="3" glyph-name="three" horiz-adv-x="1120" d="M560 800Q527 800 504 823T480 880Q480 913 503 936T560 960Q659 960 729 1030T800 1200Q800 1299 730 1369T560 1440Q461 1440 391 1370T320 1200Q320 1167 297 1144T240 1120Q207 1120 184 1143T160
1200Q160 1366 277 1483T560 1600Q726 1600 843 1483T960 1200Q960 1024 813 889Q859 860 900 820Q1040 679 1040 480Q1040 281 900 141T560 0Q361 0 221 140T80 480Q80 513 103 536T160 560Q193 560 216 537T240 480Q240 347 333 254T560 160Q693 160 786 253T880
480Q880 613 787 706T560 800Z" />
<glyph unicode="4" glyph-name="four" horiz-adv-x="1280" d="M800 560V1264L313 560H800ZM160 400Q127 400 104 423T80 480Q80 506 95 527L815 1567Q837 1600 880 1600Q913 1600 936 1577T960 1520V560H1120Q1153 560 1176 537T1200 480Q1200 447 1177 424T1120
400H960V80Q960 47 937 24T880 0Q847 0 824 23T800 80V400H160Z" />
<glyph unicode="5" glyph-name="five" horiz-adv-x="1200" d="M960 1600Q993 1600 1016 1577T1040 1520Q1040 1487 1017 1464T960 1440H320V1040H600Q815 1040 967 888T1120 520Q1120 305 968 153T600 0Q385 0 233 152T80 520Q80 553 103 576T160 600Q193 600
216 577T240 520Q240 371 345 266T600 160Q749 160 854 265T960 520Q960 669 855 774T600 880H240Q207 880 184 903T160 960V1520Q160 1553 183 1576T240 1600H960Z" />
<glyph unicode="6" glyph-name="six" horiz-adv-x="1120" d="M471 952Q514 960 560 960Q759 960 899 820T1040 480Q1040 281 900 141T560 0Q361 0 221 140T80 480Q80 627 157 742L648 1556Q654 1567 664 1577Q687 1600 720 1600Q753 1600 776 1577T800 1520Q800
1497 789 1479L471 952ZM880 480Q880 613 787 706T560 800Q427 800 334 707T240 480Q240 347 333 254T560 160Q693 160 786 253T880 480Z" />
<glyph unicode="7" glyph-name="seven" horiz-adv-x="1120" d="M217 24Q193 0 160 0Q127 0 104 23T80 80Q80 104 96 128L825 1440H160Q127 1440 104 1463T80 1520Q80 1553 103 1576T160 1600H960Q993 1600 1016 1577T1040 1520Q1040 1496 1028 1477L232 45Q225
32 217 24Z" />
<glyph unicode="8" glyph-name="eight" horiz-adv-x="1120" d="M560 1440Q461 1440 391 1370T320 1200Q320 1101 390 1031T560 960Q659 960 729 1030T800 1200Q800 1299 730 1369T560 1440ZM560 800Q427 800 334 707T240 480Q240 347 333 254T560 160Q693 160
786 253T880 480Q880 613 787 706T560 800ZM307 889Q292 902 277 917Q160 1034 160 1200Q160 1366 277 1483T560 1600Q726 1600 843 1483T960 1200Q960 1034 843 917Q828 902 813 889Q859 860 900 820Q1040 679 1040 480Q1040 281 900 141T560 0Q361 0 221 140T80
480Q80 679 221 820Q261 860 307 889Z" />
<glyph unicode="9" glyph-name="nine" horiz-adv-x="1120" d="M649 648Q606 640 560 640Q361 640 221 780T80 1120Q80 1319 220 1459T560 1600Q759 1600 899 1460T1040 1120Q1040 973 963 858L472 44Q466 33 457 24Q433 0 400 0Q367 0 344 23T320 80Q320 103 331
121L649 648ZM240 1120Q240 987 333 894T560 800Q693 800 786 893T880 1120Q880 1253 787 1346T560 1440Q427 1440 334 1347T240 1120Z" />
<glyph unicode=":" glyph-name="colon" horiz-adv-x="400" d="M320 120Q320 70 285 35T200 0Q150 0 115 35T80 120Q80 170 115 205T200 240Q250 240 285 205T320 120ZM320 1001Q320 951 285 916T200 881Q150 881 115 916T80 1001Q80 1051 115 1086T200 1121Q250
1121 285 1086T320 1001Z" />
<glyph unicode=";" glyph-name="semicolon" horiz-adv-x="400" d="M320 1001Q320 951 285 916T200 881Q150 881 115 916T80 1001Q80 1051 115 1086T200 1121Q250 1121 285 1086T320 1001ZM115 35Q80 70 80 120Q80 170 115 205T200 240Q250 240 285 205T320 120Q320
-76 233 -208Q211 -240 180 -240Q155 -240 138 -223T120 -180Q120 -155 137 -138Q207 -60 115 35Z" />
<glyph unicode="&lt;" glyph-name="less" horiz-adv-x="1120" d="M124 792L920 1270Q938 1280 960 1280Q993 1280 1016 1257T1040 1200Q1040 1157 999 1130L315 720L999 310Q1040 283 1040 240Q1040 207 1017 184T960 160Q938 160 920 170L124 648Q80 676 80 720Q80
764 124 792Z" />
<glyph unicode="=" glyph-name="equal" horiz-adv-x="1040" d="M160 880Q127 880 104 903T80 960Q80 993 103 1016T160 1040H880Q913 1040 936 1017T960 960Q960 927 937 904T880 880H160ZM880 560Q913 560 936 537T960 480Q960 447 937 424T880 399H160Q127 400
104 423T80 480Q80 513 103 536T160 560H880Z" />
<glyph unicode="&gt;" glyph-name="greater" horiz-adv-x="1120" d="M1040 720Q1040 676 996 648L200 170Q182 160 160 160Q127 160 104 183T80 240Q80 283 121 310L805 720L121 1130Q80 1157 80 1200Q80 1233 103 1256T160 1280Q182 1280 200 1270L996 792Q1040
764 1040 720Z" />
<glyph unicode="?" glyph-name="question" horiz-adv-x="1120" d="M240 1120Q240 1087 217 1064T160 1040Q127 1040 104 1063T80 1120Q80 1319 220 1459T560 1600Q759 1600 899 1460T1040 1120Q1040 921 899 780L734 627Q640 533 640 400Q640 367 617 344T560
320Q527 320 504 343T480 400Q480 599 621 740L786 893Q880 987 880 1120Q880 1253 787 1346T560 1440Q427 1440 334 1347T240 1120ZM680 120Q680 70 645 35T560 0Q510 0 475 35T440 120Q440 170 475 205T560 240Q610 240 645 205T680 120Z" />
<glyph unicode="@" glyph-name="at" horiz-adv-x="2240" d="M1120 960Q954 960 837 843T720 560Q720 394 837 277T1120 160Q1286 160 1403 277T1520 560Q1520 726 1403 843T1120 960ZM1520 167Q1352 0 1120 0Q888 0 724 164T560 560Q560 792 724 956T1120 1120Q1352
1120 1516 956T1680 560V160Q1680 80 1760 80Q2000 80 2000 560Q2000 925 1743 1182T1120 1440Q755 1440 498 1183T240 560Q240 195 497 -62T1120 -320Q1316 -320 1482 -246Q1500 -235 1522 -235Q1555 -235 1578 -258T1602 -315Q1602 -348 1579 -371Q1566 -384
1551 -390Q1354 -480 1120 -480Q689 -480 385 -176T80 560Q80 991 384 1295T1120 1600Q1551 1600 1855 1296T2160 560Q2160 -80 1760 -80Q1520 -80 1520 167Z" />
<glyph unicode="A" glyph-name="A" horiz-adv-x="1440" d="M433 560L234 49Q228 35 217 23Q193 0 160 0Q127 0 104 23T80 80Q80 99 87 114L643 1544Q649 1562 664 1577Q687 1600 720 1600Q753 1600 777 1577Q791 1562 797 1544L1353 114Q1360 99 1360 80Q1360
47 1337 24T1280 0Q1247 0 1224 23Q1212 35 1206 49L1007 560H433ZM945 720L720 1299L495 720H945Z" />
<glyph unicode="B" glyph-name="B" horiz-adv-x="1120" d="M240 1440V960H480Q579 960 649 1030T720 1200Q720 1299 650 1369T480 1440H240ZM240 800V160H560Q693 160 786 253T880 480Q880 613 787 706T560 800H240ZM160 1600H480Q646 1600 763 1483T880 1200Q880
1034 763 917Q837 882 900 820Q1040 679 1040 480Q1040 281 900 141T560 0H160Q127 0 104 23T80 80V1520Q80 1553 103 1576T160 1600Z" />
<glyph unicode="C" glyph-name="C" horiz-adv-x="1480" d="M1326 314Q1359 314 1382 291T1406 234Q1406 201 1383 178Q1160 0 880 0Q549 0 315 234T80 800Q80 1131 314 1365T880 1600Q1166 1600 1389 1417Q1412 1393 1412 1360Q1412 1327 1389 1304T1332 1280Q1299
1280 1275 1304Q1106 1440 880 1440Q615 1440 428 1253T240 800Q240 535 427 348T880 160Q1109 160 1280 300Q1300 314 1326 314Z" />
<glyph unicode="D" glyph-name="D" horiz-adv-x="1360" d="M480 160Q745 160 932 347T1120 800Q1120 1065 933 1252T480 1440H240V160H480ZM480 1600Q811 1600 1045 1366T1280 800Q1280 469 1046 235T480 0H160Q127 0 104 23T80 80V1520Q80 1553 103 1576T160 1600H480Z" />
<glyph unicode="E" glyph-name="E" horiz-adv-x="1280" d="M160 1600H1120Q1153 1600 1176 1577T1200 1520Q1200 1487 1177 1464T1120 1440H240V880H880Q913 880 936 857T960 800Q960 767 937 744T880 720H240V160H1120Q1153 160 1176 137T1200 80Q1200 47 1177
24T1120 0H160Q127 0 104 23T80 80V1520Q80 1553 103 1576T160 1600Z" />
<glyph unicode="F" glyph-name="F" horiz-adv-x="1280" d="M160 1600H1120Q1153 1600 1176 1577T1200 1520Q1200 1487 1177 1464T1120 1440H240V880H880Q913 880 936 857T960 800Q960 767 937 744T880 720H240V80Q240 47 217 24T160 0Q127 0 104 23T80 80V1520Q80
1553 103 1576T160 1600Z" />
<glyph unicode="G" glyph-name="G" horiz-adv-x="1500" d="M1406 234Q1406 201 1383 178Q1160 0 880 0Q549 0 315 234T80 800Q80 1131 314 1365T880 1600Q1166 1600 1389 1417Q1412 1393 1412 1360Q1412 1327 1389 1304T1332 1280Q1299 1280 1275 1304Q1106 1440
880 1440Q615 1440 428 1253T240 800Q240 535 427 348T880 160Q1087 160 1246 274V640H930Q897 640 874 663T850 720Q850 753 873 776T930 800H1327Q1359 800 1383 777Q1406 753 1406 720V234Z" />
<glyph unicode="H" glyph-name="H" horiz-adv-x="1280" d="M80 1520Q80 1553 103 1576T160 1600Q193 1600 216 1577T240 1520V880H1040V1520Q1040 1553 1063 1576T1120 1600Q1153 1600 1176 1577T1200 1520V80Q1200 47 1177 24T1120 0Q1087 0 1064 23T1040 80V720H240V80Q240
47 217 24T160 0Q127 0 104 23T80 80V1520Z" />
<glyph unicode="I" glyph-name="I" horiz-adv-x="480" d="M160 1520Q160 1553 183 1576T240 1600Q273 1600 296 1577T320 1520V80Q320 47 297 24T240 0Q207 0 184 23T160 80V1520Z" />
<glyph unicode="J" glyph-name="J" horiz-adv-x="1120" d="M80 480Q80 513 103 536T160 560Q193 560 216 537T240 480Q240 347 333 254T560 160Q693 160 786 253T880 480V1520Q880 1553 903 1576T960 1600Q993 1600 1016 1577T1040 1520V480Q1040 281 900 141T560
0Q361 0 221 140T80 480Z" />
<glyph unicode="K" glyph-name="K" horiz-adv-x="1200" d="M80 1520Q80 1553 103 1576T160 1600Q193 1600 216 1577T240 1520V834L981 1575Q1007 1600 1040 1600Q1073 1600 1096 1577T1120 1520Q1120 1487 1097 1463L535 901L1105 128Q1120 107 1120 83Q1120 41
1088 16Q1066 0 1042 0Q998 0 974 34L420 786L240 606V80Q240 47 217 24T160 0Q127 0 104 23T80 80V1520Z" />
<glyph unicode="L" glyph-name="L" horiz-adv-x="1200" d="M80 1520Q80 1553 103 1576T160 1600Q193 1600 216 1577T240 1520V160H1040Q1073 160 1096 137T1120 80Q1120 47 1097 24T1040 0H160Q127 0 104 23T80 80V1520Z" />
<glyph unicode="M" glyph-name="M" horiz-adv-x="1760" d="M806 49L240 1181V80Q240 47 217 24T160 0Q127 0 104 23T80 80V1520Q80 1553 103 1576T160 1600Q208 1600 231 1558L880 259L1529 1558Q1552 1600 1600 1600Q1633 1600 1656 1577T1680 1520V80Q1680 47
1657 24T1600 0Q1567 0 1544 23T1520 80V1181L949 39Q928 0 880 0Q830 0 806 49Z" />
<glyph unicode="N" glyph-name="N" horiz-adv-x="1440" d="M240 80Q240 47 217 24T160 0Q127 0 104 23T80 80V1520Q80 1553 103 1576T160 1600Q196 1600 222 1571L1200 313V1520Q1200 1553 1223 1576T1280 1600Q1313 1600 1336 1577T1360 1520V80Q1360 47 1337
24T1280 0Q1245 0 1220 26L240 1286V80Z" />
<glyph unicode="O" glyph-name="O" horiz-adv-x="1760" d="M880 1440Q615 1440 428 1253T240 800Q240 535 427 348T880 160Q1145 160 1332 347T1520 800Q1520 1065 1333 1252T880 1440ZM1680 800Q1680 469 1446 235T880 0Q549 0 315 234T80 800Q80 1131 314 1365T880
1600Q1211 1600 1445 1366T1680 800Z" />
<glyph unicode="P" glyph-name="P" horiz-adv-x="1080" d="M240 1440V720H480Q629 720 734 825T840 1080Q840 1229 735 1334T480 1440H240ZM160 1600H480Q695 1600 847 1448T1000 1080Q1000 865 848 713T480 560H240V80Q240 47 217 24T160 0Q127 0 104 23T80 80V1520Q80
1553 103 1576T160 1600Z" />
<glyph unicode="Q" glyph-name="Q" horiz-adv-x="1760" d="M1386 180Q1170 0 880 0Q549 0 315 234T80 800Q80 1131 314 1365T880 1600Q1211 1600 1445 1366T1680 800Q1680 510 1500 294L1658 136Q1680 112 1680 80Q1680 47 1657 24T1600 0Q1567 0 1542 24L1386
180ZM1272 294L1103 463Q1080 487 1080 520Q1080 553 1103 576T1160 600Q1193 600 1217 577L1386 408Q1520 576 1520 800Q1520 1065 1333 1252T880 1440Q615 1440 428 1253T240 800Q240 535 427 348T880 160Q1104 160 1272 294Z" />
<glyph unicode="R" glyph-name="R" horiz-adv-x="1200" d="M240 1440V800H560Q693 800 786 893T880 1120Q880 1253 787 1346T560 1440H240ZM160 1600H560Q759 1600 899 1460T1040 1120Q1040 921 900 781Q835 716 759 682L1107 124Q1120 105 1120 80Q1120 47 1097
24T1040 0Q997 0 970 41L595 641Q578 640 560 640H240V80Q240 47 217 24T160 0Q127 0 104 23T80 80V1520Q80 1553 103 1576T160 1600Z" />
<glyph unicode="S" glyph-name="S" horiz-adv-x="1060" d="M96 219Q80 240 80 267Q80 300 103 323T160 347Q203 347 228 310Q240 291 256 274Q341 172 474 161Q606 151 707 236T819 454Q830 587 745 687T526 799Q361 813 254 939T160 1231Q174 1396 300 1503Q413
1600 560 1600Q734 1600 864 1457Q886 1431 903 1403Q915 1384 915 1360Q915 1327 892 1304T835 1280Q797 1280 779 1304Q761 1328 742 1353Q677 1429 579 1437Q480 1445 404 1381T320 1218Q312 1119 376 1043T539 959Q738 942 867 791Q980 657 980 487Q980 464
978 441Q962 243 811 115Q676 0 504 0Q289 0 134 170Q113 193 96 219Z" />
<glyph unicode="T" glyph-name="T" horiz-adv-x="1360" d="M160 1440Q127 1440 104 1463T80 1520Q80 1553 103 1576T160 1600H1200Q1233 1600 1256 1577T1280 1520Q1280 1487 1257 1464T1200 1440H760V80Q760 47 737 24T680 0Q647 0 624 23T600 80V1440H160Z" />
<glyph unicode="U" glyph-name="U" horiz-adv-x="1280" d="M80 1520Q80 1553 103 1576T160 1600Q193 1600 216 1577T240 1520V560Q240 394 357 277T640 160Q806 160 923 277T1040 560V1520Q1040 1553 1063 1576T1120 1600Q1153 1600 1176 1577T1200 1520V560Q1200
328 1036 164T640 0Q408 0 244 164T80 560V1520Z" />
<glyph unicode="V" glyph-name="V" horiz-adv-x="1440" d="M777 24Q753 0 720 0Q687 0 664 24Q653 34 647 50L90 1475Q80 1498 80 1520Q80 1553 103 1576T160 1600Q213 1600 233 1554L720 301L1207 1554Q1227 1600 1280 1600Q1313 1600 1336 1577T1360 1520Q1360
1498 1350 1475L793 50Q787 34 777 24Z" />
<glyph unicode="W" glyph-name="W" horiz-adv-x="1920" d="M904 1577Q927 1600 960 1600Q993 1600 1017 1577Q1030 1563 1036 1547L1360 379L1684 1547Q1690 1563 1704 1577Q1727 1600 1760 1600Q1793 1600 1816 1577T1840 1520Q1840 1503 1834 1485L1442 67Q1434
42 1417 24Q1393 0 1360 0Q1327 0 1304 24Q1286 42 1279 66L960 1218L642 67Q634 42 617 24Q593 0 560 0Q527 0 504 24Q486 42 479 66L86 1485Q80 1503 80 1520Q80 1553 103 1576T160 1600Q193 1600 217 1577Q230 1563 236 1547L560 379L884 1547Q888 1562 904
1577Z" />
<glyph unicode="X" glyph-name="X" horiz-adv-x="1440" d="M720 931L1214 1566Q1242 1600 1280 1600Q1313 1600 1336 1577T1360 1520Q1360 1494 1346 1474L822 800L1343 130Q1360 108 1360 80Q1360 47 1337 24T1280 0Q1242 0 1219 28L720 669L221 28Q198 0 160
0Q127 0 104 23T80 80Q80 108 97 130L618 800L94 1474Q80 1494 80 1520Q80 1553 103 1576T160 1600Q198 1600 226 1566L720 931Z" />
<glyph unicode="Y" glyph-name="Y" horiz-adv-x="1280" d="M720 80Q720 47 697 24T640 0Q607 0 584 23T560 80V776L93 1475Q80 1495 80 1520Q80 1553 103 1576T160 1600Q201 1600 225 1567L640 945L1055 1567Q1079 1600 1120 1600Q1153 1600 1176 1577T1200 1520Q1200
1495 1187 1475L720 776V80Z" />
<glyph unicode="Z" glyph-name="Z" horiz-adv-x="1440" d="M160 1440Q127 1440 104 1463T80 1520Q80 1553 103 1576T160 1600H1280Q1313 1600 1336 1577T1360 1520Q1360 1494 1346 1474L324 160H1280Q1313 160 1336 137T1360 80Q1360 47 1337 24T1280 0H160Q127
0 104 23T80 80Q80 108 97 130L1116 1440H160Z" />
<glyph unicode="[" glyph-name="bracketleft" horiz-adv-x="640" d="M160 1600H480Q513 1600 536 1577T560 1520Q560 1487 537 1464T480 1440H240V-320H480Q513 -320 536 -343T560 -400Q560 -433 537 -456T480 -480H160Q127 -480 104 -457T80 -400V1520Q80 1553
103 1576T160 1600Z" />
<glyph unicode="\" glyph-name="backslash" horiz-adv-x="960" d="M233 1554L873 -46Q880 -62 880 -80Q880 -113 857 -136T800 -160Q767 -160 743 -136Q733 -126 727 -114L87 1486Q80 1502 80 1520Q80 1553 103 1576T160 1600Q193 1600 217 1577Q227 1566 233 1554Z" />
<glyph unicode="]" glyph-name="bracketright" horiz-adv-x="640" d="M560 1520V-400Q560 -433 537 -456T480 -480H160Q127 -480 104 -457T80 -400Q80 -367 103 -344T160 -320H400V1440H160Q127 1440 104 1463T80 1520Q80 1553 103 1576T160 1600H480Q513 1600
536 1577T560 1520Z" />
<glyph unicode="^" glyph-name="asciicircum" horiz-adv-x="960" d="M480 1375L224 991Q200 960 160 960Q127 960 104 983T80 1040Q80 1063 91 1081L415 1567Q437 1600 480 1600Q523 1600 545 1567L869 1081Q880 1063 880 1040Q880 1007 857 984T800 960Q760 960
736 991L480 1375Z" />
<glyph unicode="_" glyph-name="underscore" horiz-adv-x="960" d="M0 -160Q-33 -160 -56 -137T-80 -80Q-80 -47 -57 -24T0 0H960Q993 0 1016 -23T1040 -80Q1040 -113 1017 -136T960 -160H0Z" />
<glyph unicode="`" glyph-name="grave" horiz-adv-x="560" d="M80 1520Q80 1553 103 1576T160 1600Q193 1600 217 1577L460 1334Q480 1311 480 1280Q480 1247 457 1224T400 1200Q368 1200 345 1221L102 1464Q80 1488 80 1520Z" />
<glyph unicode="a" glyph-name="a" horiz-adv-x="1280" d="M640 960Q474 960 357 843T240 560Q240 394 357 277T640 160Q806 160 923 277T1040 560Q1040 726 923 843T640 960ZM1040 168Q872 0 640 0Q408 0 244 164T80 560Q80 792 244 956T640 1120Q872 1120 1036
956T1200 560V80Q1200 47 1177 24T1120 0Q1087 0 1064 23T1040 80V168Z" />
<glyph unicode="b" glyph-name="b" horiz-adv-x="1280" d="M640 160Q806 160 923 277T1040 560Q1040 726 923 843T640 960Q474 960 357 843T240 560Q240 394 357 277T640 160ZM240 952Q242 954 244 956Q408 1120 640 1120Q872 1120 1036 956T1200 560Q1200 328
1036 164T640 0Q408 0 244 164T80 560V1522Q80 1555 103 1578T160 1602Q193 1602 216 1579T240 1522V952Z" />
<glyph unicode="c" glyph-name="c" horiz-adv-x="1120" d="M950 274Q983 274 1006 251T1030 194Q1030 161 1005 135Q850 0 640 0Q408 0 244 164T80 560Q80 792 244 956T640 1120Q850 1120 1005 985Q1033 960 1033 923Q1033 890 1010 867T953 843Q924 843 902 861Q790
960 640 960Q474 960 357 843T240 560Q240 394 357 277T640 160Q790 160 901 258Q922 274 950 274Z" />
<glyph unicode="d" glyph-name="d" horiz-adv-x="1280" d="M1040 560Q1040 726 923 843T640 960Q474 960 357 843T240 560Q240 394 357 277T640 160Q806 160 923 277T1040 560ZM1040 1522Q1040 1555 1063 1578T1120 1602Q1153 1602 1176 1579T1200 1522V560Q1200
328 1036 164T640 0Q408 0 244 164T80 560Q80 792 244 956T640 1120Q872 1120 1036 956Q1038 954 1040 952V1522Z" />
<glyph unicode="e" glyph-name="e" horiz-adv-x="1280" d="M1033 640Q1011 755 923 843Q806 960 640 960Q474 960 357 843Q269 755 247 640H1033ZM948 272Q981 272 1004 249T1028 192Q1028 159 1005 135Q850 0 640 0Q408 0 244 164T80 560Q80 792 244 956T640
1120Q872 1120 1036 956T1200 560Q1200 527 1177 504T1120 480H247Q269 365 357 277Q474 160 640 160Q790 160 898 255Q920 272 948 272Z" />
<glyph unicode="f" glyph-name="f" horiz-adv-x="800" d="M720 1600Q753 1600 776 1577T800 1520Q800 1487 777 1464T720 1440Q400 1440 400 1120V1060H641Q674 1060 697 1037T721 980Q721 947 698 924T641 900H400V80Q400 47 377 24T320 0Q287 0 264 23T240 80V900H160Q127
900 104 923T80 980Q80 1013 103 1036T160 1060H240V1120Q240 1600 720 1600Z" />
<glyph unicode="g" glyph-name="g" horiz-adv-x="1280" d="M640 960Q474 960 357 843T240 560Q240 394 357 277T640 160Q806 160 923 277T1040 560Q1040 726 923 843T640 960ZM1040 168Q1038 166 1036 164Q872 0 640 0Q408 0 244 164T80 560Q80 792 244 956T640
1120Q872 1120 1036 956T1200 560V0Q1200 -175 1074 -304Q898 -480 649 -480Q400 -480 225 -304Q160 -240 119 -165Q107 -147 107 -123Q107 -90 130 -67T187 -43Q220 -43 244 -66Q254 -77 261 -90Q291 -144 338 -191Q467 -320 649 -320Q831 -320 960 -191Q1040
-95 1040 0V168Z" />
<glyph unicode="h" glyph-name="h" horiz-adv-x="1200" d="M80 1520Q80 1553 103 1576T160 1600Q193 1600 216 1577T240 1520V975Q390 1120 600 1120Q815 1120 967 968T1120 600V80Q1120 47 1097 24T1040 0Q1007 0 984 23T960 80V600Q960 749 855 854T600 960Q451
960 346 855T240 600V80Q240 47 217 24T160 0Q127 0 104 23T80 80V1520Z" />
<glyph unicode="i" glyph-name="i" horiz-adv-x="480" d="M340 1360Q340 1319 311 1290T240 1260Q199 1260 170 1289T140 1360Q140 1401 169 1430T240 1460Q281 1460 310 1431T340 1360ZM160 1040Q160 1073 183 1096T240 1120Q273 1120 296 1097T320 1040V80Q320
47 297 24T240 0Q207 0 184 23T160 80V1040Z" />
<glyph unicode="j" glyph-name="j" horiz-adv-x="656" d="M580 1360Q580 1319 551 1290T480 1260Q439 1260 410 1289T380 1360Q380 1401 409 1430T480 1460Q521 1460 550 1431T580 1360ZM400 0V1040Q400 1073 423 1096T480 1120Q513 1120 536 1097T560 1040V0Q560
-199 420 -339T80 -480Q47 -480 24 -457T0 -400Q0 -367 23 -344T80 -320Q213 -320 306 -227T400 0Z" />
<glyph unicode="k" glyph-name="k" horiz-adv-x="1120" d="M240 668L917 1108Q936 1120 960 1120Q993 1120 1016 1097T1040 1040Q1040 1007 1017 984Q1011 978 1006 974L542 672L1018 136Q1040 112 1040 80Q1040 47 1017 24T960 0Q927 0 902 24L405 584L240 477V80Q240
47 217 24T160 0Q127 0 104 23T80 80V1520Q80 1553 103 1576T160 1600Q193 1600 216 1577T240 1520V668Z" />
<glyph unicode="l" glyph-name="l" horiz-adv-x="480" d="M80 1520Q80 1553 103 1576T160 1600Q193 1600 216 1577T240 1520V160H320Q353 160 376 137T400 80Q400 47 377 24T320 0H160Q127 0 104 23T80 80V1520Z" />
<glyph unicode="m" glyph-name="m" horiz-adv-x="1760" d="M240 80Q240 47 217 24T160 0Q127 0 104 23T80 80V1040Q80 1073 103 1096T160 1120Q193 1120 216 1097T240 1040V1019Q359 1120 520 1120Q702 1120 831 991Q858 964 880 934Q902 964 929 991Q1058 1120
1240 1120Q1422 1120 1551 991T1680 680V80Q1680 47 1657 24T1600 0Q1567 0 1544 23T1520 80V680Q1520 796 1438 878T1240 960Q1124 960 1042 878T960 680V80Q960 47 937 24T880 0Q847 0 824 23T800 80V680Q800 796 718 878T520 960Q404 960 322 878T240 680V80Z"
/>
<glyph unicode="n" glyph-name="n" horiz-adv-x="1200" d="M80 1040Q80 1073 103 1096T160 1120Q193 1120 216 1097T240 1040V975Q390 1120 600 1120Q815 1120 967 968T1120 600V80Q1120 47 1097 24T1040 0Q1007 0 984 23T960 80V600Q960 749 855 854T600 960Q451
960 346 855T240 600V80Q240 47 217 24T160 0Q127 0 104 23T80 80V1040Z" />
<glyph unicode="o" glyph-name="o" horiz-adv-x="1280" d="M1200 560Q1200 328 1036 164T640 0Q408 0 244 164T80 560Q80 792 244 956T640 1120Q872 1120 1036 956T1200 560ZM640 960Q474 960 357 843T240 560Q240 394 357 277T640 160Q806 160 923 277T1040 560Q1040
726 923 843T640 960Z" />
<glyph unicode="p" glyph-name="p" horiz-adv-x="1280" d="M240 560Q240 394 357 277T640 160Q806 160 923 277T1040 560Q1040 726 923 843T640 960Q474 960 357 843T240 560ZM240 -400Q240 -433 217 -456T160 -480Q127 -480 104 -457T80 -400V560Q80 792 244
956T640 1120Q872 1120 1036 956T1200 560Q1200 328 1036 164T640 0Q408 0 244 164Q242 166 240 168V-400Z" />
<glyph unicode="q" glyph-name="q" horiz-adv-x="1280" d="M640 960Q474 960 357 843T240 560Q240 394 357 277T640 160Q806 160 923 277T1040 560Q1040 726 923 843T640 960ZM1040 168Q1038 166 1036 164Q872 0 640 0Q408 0 244 164T80 560Q80 792 244 956T640
1120Q872 1120 1036 956T1200 560V-400Q1200 -433 1177 -456T1120 -480Q1087 -480 1064 -457T1040 -400V168Z" />
<glyph unicode="r" glyph-name="r" horiz-adv-x="960" d="M80 1040Q80 1073 103 1096T160 1120Q193 1120 216 1097T240 1040V952Q408 1120 640 1120Q757 1120 855 1080Q873 1073 888 1059Q911 1035 911 1002Q911 969 888 946T831 922Q812 922 796 930Q725 960
640 960Q474 960 357 843T240 560V80Q240 47 217 24T160 0Q127 0 104 23T80 80V1040Z" />
<glyph unicode="s" glyph-name="s" horiz-adv-x="1060" d="M278 560Q187 594 151 631Q80 701 80 800Q80 899 154 973Q298 1120 530 1120Q781 1120 960 919Q976 900 975 872Q975 839 952 816T895 792Q862 792 842 813T813 843Q696 960 530 960Q364 960 265 856Q241
827 241 787Q244 740 290 723L782 560Q873 526 909 489Q980 419 980 320Q980 221 906 147Q762 0 530 0Q278 0 100 201Q85 222 85 248Q85 281 108 304T165 328Q198 328 218 307T247 277Q364 160 530 160Q696 160 795 264Q819 293 819 333Q816 380 770 397L278 560Z"
/>
<glyph unicode="t" glyph-name="t" horiz-adv-x="800" d="M640 160Q673 160 696 137T720 80Q720 47 697 24T640 0Q240 0 240 400V960H160Q127 960 104 983T80 1040Q80 1073 103 1096T160 1120H240V1520Q240 1553 263 1576T320 1600Q353 1600 376 1577T400 1520V1120H561Q594
1120 617 1097T641 1040Q641 1007 618 984T561 960H400V400Q400 160 640 160Z" />
<glyph unicode="u" glyph-name="u" horiz-adv-x="1200" d="M1120 80Q1120 47 1097 24T1040 0Q1007 0 984 23T960 80V145Q810 0 600 0Q385 0 233 152T80 520V1040Q80 1073 103 1096T160 1120Q193 1120 216 1097T240 1040V520Q240 371 345 266T600 160Q749 160 854
265T960 520V1040Q960 1073 983 1096T1040 1120Q1073 1120 1096 1097T1120 1040V80Z" />
<glyph unicode="v" glyph-name="v" horiz-adv-x="1200" d="M657 22Q635 0 600 0Q565 0 543 23Q536 29 530 42L86 1009Q80 1023 80 1040Q80 1073 103 1096T160 1120Q193 1120 217 1097Q225 1089 232 1076L600 272L968 1076Q975 1089 984 1097Q1007 1120 1040 1120Q1073
1120 1096 1097T1120 1040Q1120 1023 1114 1009L670 42Q664 29 657 22Z" />
<glyph unicode="w" glyph-name="w" horiz-adv-x="1600" d="M744 1097Q767 1120 800 1120Q833 1120 857 1097Q872 1081 878 1060L1120 333L1367 1074Q1373 1086 1384 1097Q1407 1120 1440 1120Q1473 1120 1496 1097T1520 1040Q1520 1024 1514 1009L1195 51Q1189
36 1177 22Q1153 0 1120 0Q1087 0 1064 22Q1051 36 1045 51L800 787L555 51Q549 36 537 22Q513 0 480 0Q447 0 424 22Q411 36 405 51L86 1009Q80 1024 80 1040Q80 1073 103 1096T160 1120Q193 1120 217 1097Q227 1086 233 1074L480 333L722 1060Q729 1081 744 1097Z"
/>
<glyph unicode="x" glyph-name="x" horiz-adv-x="1120" d="M456 561L99 988Q80 1010 80 1040Q80 1073 103 1096T160 1120Q193 1120 219 1095L560 686L901 1095Q927 1120 960 1120Q993 1120 1016 1097T1040 1040Q1040 1010 1021 988L664 561L1024 129Q1040 108
1040 80Q1040 47 1017 24T960 0Q927 0 904 24L560 436L216 24Q193 0 160 0Q127 0 104 23T80 80Q80 108 96 129L456 561Z" />
<glyph unicode="y" glyph-name="y" horiz-adv-x="1120" d="M473 81L89 1003Q80 1020 80 1040Q80 1073 103 1096T160 1120Q193 1120 217 1097Q230 1083 236 1067L560 290L884 1067Q890 1083 904 1097Q927 1120 960 1120Q993 1120 1016 1097T1040 1040Q1040 1020
1031 1003L435 -427Q429 -443 416 -456Q392 -480 359 -480Q326 -480 303 -457T279 -400Q279 -380 288 -363L473 81Z" />
<glyph unicode="z" glyph-name="z" horiz-adv-x="1120" d="M960 160Q993 160 1016 137T1040 80Q1040 47 1017 24T960 0H160Q127 0 104 23T80 80Q80 108 96 129L789 960H160Q127 960 104 983T80 1040Q80 1073 103 1096T160 1120H960Q993 1120 1016 1097T1040 1040Q1040
1010 1021 988L330 160H960Z" />
<glyph unicode="{" glyph-name="braceleft" horiz-adv-x="800" d="M640 1600Q673 1600 696 1577T720 1520Q720 1487 697 1464T640 1440Q480 1440 480 1280V800Q480 640 400 560Q480 480 480 320V-160Q480 -320 640 -320Q673 -320 696 -343T720 -400Q720 -433 697
-456T640 -480Q320 -480 320 -160V320Q320 480 160 480Q127 480 104 503T80 560Q80 593 103 616T160 640Q320 640 320 800V1280Q320 1600 640 1600Z" />
<glyph unicode="|" glyph-name="bar" horiz-adv-x="800" d="M320 1520Q320 1553 343 1576T400 1600Q433 1600 456 1577T480 1520V-400Q480 -433 457 -456T400 -480Q367 -480 344 -457T320 -400V1520Z" />
<glyph unicode="}" glyph-name="braceright" horiz-adv-x="800" d="M480 1280V800Q480 640 640 640Q673 640 696 617T720 560Q720 527 697 504T640 480Q480 480 480 320V-160Q480 -480 160 -480Q127 -480 104 -457T80 -400Q80 -367 103 -344T160 -320Q320 -320
320 -160V320Q320 480 400 560Q320 640 320 800V1280Q320 1440 160 1440Q127 1440 104 1463T80 1520Q80 1553 103 1576T160 1600Q480 1600 480 1280Z" />
<glyph unicode="~" glyph-name="asciitilde" horiz-adv-x="960" d="M532 687Q442 607 320 607Q187 607 93 701Q71 725 71 757Q71 790 94 813T151 837Q183 837 207 815Q254 767 320 767Q376 767 420 802Q509 882 632 882Q765 882 859 788Q881 764 881 732Q881 699
858 676T801 652Q769 652 745 674Q698 722 632 722Q575 722 532 687Z" />
<glyph unicode="&#xa0;" glyph-name="space" horiz-adv-x="560" />
<glyph unicode="&#xa1;" glyph-name="exclamdown" horiz-adv-x="400" d="M200 879Q150 879 115 914T80 999Q80 1049 115 1084T200 1119Q250 1119 285 1084T320 999Q320 949 285 914T200 879ZM120 720Q120 752 144 775Q167 799 200 799Q233 799 257 775Q280 752
280 720V-400Q280 -433 257 -456T200 -480Q167 -480 144 -457T120 -400V720Z" />
<glyph unicode="&#xa2;" glyph-name="cent" horiz-adv-x="1120" d="M361 280L633 960Q476 955 364 843Q247 726 247 560Q247 396 361 280ZM497 188Q566 160 647 160Q797 160 908 258Q929 274 957 274Q990 274 1013 251T1037 194Q1037 161 1012 135Q857 0 647 0Q534
0 438 39L315 -269Q303 -300 273 -313Q257 -320 241 -320Q226 -320 211 -314Q180 -302 167 -272T166 -210L298 121Q274 141 251 164Q87 328 87 560Q87 792 251 956T647 1120Q672 1120 696 1118L805 1390Q818 1421 849 1434Q862 1440 880 1440Q895 1440 909 1435Q940
1423 953 1393T954 1331L855 1082Q939 1048 1012 985Q1040 960 1040 923Q1040 890 1017 867T960 843Q931 843 909 861Q856 908 795 932L497 188Z" />
<glyph unicode="&#xa3;" glyph-name="sterling" horiz-adv-x="1040" d="M240 0Q207 0 184 23T160 80Q160 97 166 112Q283 385 279 640H160Q127 640 104 663T80 720Q80 753 103 776T160 800H265Q243 927 190 1050H191Q160 1125 160 1200Q160 1366 277 1483T560
1600Q726 1600 843 1483Q872 1454 894 1422Q910 1400 910 1372Q910 1339 887 1316T830 1292Q793 1292 774 1316Q757 1341 730 1370Q659 1440 560 1440Q461 1440 391 1370T320 1200Q320 1155 339 1110Q404 959 427 800H720Q753 800 776 777T800 720Q800 687 777
664T720 640H439Q441 408 356 160H750L810 280Q831 320 880 320Q913 320 936 297T960 240Q960 219 951 202L874 48Q868 35 857 24Q833 0 800 0H240Z" />
<glyph unicode="&#xa4;" glyph-name="currency" horiz-adv-x="960" d="M480 910Q414 910 367 863T320 750Q320 684 367 637T480 590Q546 590 593 637T640 750Q640 816 593 863T480 910ZM714 1097Q737 1120 770 1120Q803 1120 826 1097T850 1040Q850 1007 826 982L755
916Q800 842 800 750Q800 661 758 589L827 517Q850 493 850 460Q850 427 827 404T770 380Q738 380 716 402L715 401L646 475Q572 430 480 430Q391 430 320 472L243 400Q221 380 190 380Q157 380 134 403T110 460Q110 493 134 517L206 584Q160 657 160 750Q160 839
202 911L134 984Q110 1007 110 1040Q110 1073 133 1096T190 1120Q222 1120 245 1099L314 1025Q388 1070 480 1070Q569 1070 641 1028L714 1097Z" />
<glyph unicode="&#xa5;" glyph-name="yen" horiz-adv-x="1280" d="M160 880Q127 880 104 903T80 960Q80 993 103 1016T160 1040H384L93 1475Q80 1495 80 1520Q80 1553 103 1576T160 1600Q201 1600 225 1567L640 945L1055 1567Q1079 1600 1120 1600Q1153 1600 1176
1577T1200 1520Q1200 1495 1187 1475L896 1040H1121Q1153 1040 1177 1017Q1200 993 1200 960Q1200 927 1177 904Q1153 880 1121 880H789L720 776V640H1120Q1153 640 1176 617T1200 560Q1200 527 1177 504T1120 480H720V80Q720 47 697 24T640 0Q607 0 584 23T560
80V480H160Q127 480 104 503T80 560Q80 593 103 616T160 640H560V776L491 880H160Z" />
<glyph unicode="&#xa6;" glyph-name="brokenbar" horiz-adv-x="480" d="M160 1680Q160 1713 183 1736T240 1760Q273 1760 296 1737T320 1680V960Q320 927 297 904T240 880Q207 880 184 903T160 960V1680ZM320 -400Q320 -433 297 -456T240 -480Q207 -480 184 -457T160
-400V320Q160 353 183 376T240 400Q273 400 296 377T320 320V-400Z" />
<glyph unicode="&#xa7;" glyph-name="section" horiz-adv-x="960" d="M480 160Q314 160 197 277T80 560Q80 726 197 843Q217 863 239 880Q217 897 197 917Q80 1034 80 1200Q80 1366 197 1483T480 1600Q646 1600 763 1483T880 1200Q880 1167 857 1144T800 1120Q767
1120 744 1143T720 1200Q720 1299 650 1369T480 1440Q381 1440 311 1370T240 1200Q240 1101 310 1031T480 960Q646 960 763 843T880 560Q880 394 763 277Q743 257 721 240Q743 223 763 203Q880 86 880 -80Q880 -246 763 -363T480 -480Q314 -480 197 -363T80 -80Q80
-47 103 -24T160 0Q193 0 216 -23T240 -80Q240 -179 310 -249T480 -320Q579 -320 649 -250T720 -80Q720 19 650 89T480 160ZM480 800Q381 800 311 730T240 560Q240 461 310 391T480 320Q579 320 649 390T720 560Q720 659 650 729T480 800Z" />
<glyph unicode="&#xa8;" glyph-name="dieresis" horiz-adv-x="960" d="M339 1360Q339 1319 310 1290T239 1260Q198 1260 169 1289T139 1360Q139 1401 168 1430T239 1460Q280 1460 309 1431T339 1360ZM819 1360Q819 1319 790 1290T719 1260Q678 1260 649 1289T619
1360Q619 1401 648 1430T719 1460Q760 1460 789 1431T819 1360Z" />
<glyph unicode="&#xa9;" glyph-name="copyright" horiz-adv-x="1760" d="M1190 514Q1223 514 1246 491T1270 434Q1270 401 1245 375Q1090 240 880 240Q648 240 484 404T320 800Q320 1032 484 1196T880 1360Q1090 1360 1245 1225Q1273 1200 1273 1163Q1273 1130
1250 1107T1193 1083Q1164 1083 1142 1101Q1030 1200 880 1200Q714 1200 597 1083T480 800Q480 634 597 517T880 400Q1030 400 1141 498Q1162 514 1190 514ZM1675 798Q1675 467 1442 234T878 0Q547 0 314 233T80 798Q80 1128 313 1361T878 1595Q1208 1595 1441
1362T1675 798ZM878 1472Q598 1472 401 1275T203 798Q203 518 400 321T878 123Q1157 123 1354 320T1552 798Q1552 1077 1355 1274T878 1472Z" />
<glyph unicode="&#xaa;" glyph-name="ordfeminine" horiz-adv-x="960" d="M480 1440Q381 1440 311 1370T240 1200Q240 1101 310 1031T480 960Q579 960 649 1030T720 1200Q720 1299 650 1369T480 1440ZM720 879Q617 800 480 800Q314 800 197 917T80 1200Q80 1366
197 1483T480 1600Q646 1600 763 1483T880 1200V880Q880 847 857 824T800 800Q767 800 744 824Q720 847 720 879Z" />
<glyph unicode="&#xab;" glyph-name="guillemotleft" horiz-adv-x="960" d="M90 598L326 1070Q332 1084 344 1096Q367 1119 400 1119Q433 1119 456 1096T480 1039Q480 1021 473 1005L250 560L473 114Q480 98 480 80Q480 47 457 24T400 0Q367 0 344 24Q332 35 326
49L92 516Q80 538 80 559Q80 579 90 598ZM490 598L726 1070Q732 1084 744 1096Q767 1119 800 1119Q833 1119 856 1096T880 1039Q880 1021 873 1005L650 560L873 114Q880 98 880 80Q880 47 857 24T800 0Q767 0 744 24Q732 35 726 49L492 516Q480 538 480 559Q480
579 490 598Z" />
<glyph unicode="&#xac;" glyph-name="logicalnot" horiz-adv-x="1120" d="M160 960Q127 960 104 983T80 1040Q80 1073 103 1096T160 1120H960Q993 1120 1016 1097T1040 1040V720Q1040 687 1017 664T960 640Q927 640 904 663T880 720V960H160Z" />
<glyph unicode="&#xad;" glyph-name="hyphen" horiz-adv-x="800" d="M160 480Q127 480 104 503T80 560Q80 593 103 616T160 640H640Q673 640 696 617T720 560Q720 527 697 504T640 480H160Z" />
<glyph unicode="&#xae;" glyph-name="registered" horiz-adv-x="1760" d="M1675 798Q1675 467 1442 234T878 0Q547 0 314 233T80 798Q80 1128 313 1361T878 1595Q1208 1595 1441 1362T1675 798ZM878 1472Q598 1472 401 1275T203 798Q203 518 400 321T878 123Q1157
123 1354 320T1552 798Q1552 1077 1355 1274T878 1472ZM665 1217V798H875Q962 798 1023 859T1085 1008Q1085 1095 1024 1156T875 1217H665ZM612 1322H875Q1005 1322 1097 1230T1190 1008Q1190 877 1097 785Q1055 743 1005 720L1233 354Q1242 342 1242 326Q1242
304 1227 289T1190 273Q1161 273 1144 300L898 694Q886 693 875 693H665V326Q665 304 650 289T612 273Q591 273 576 288T560 326V1270Q560 1292 575 1307T612 1322Z" />
<glyph unicode="&#xaf;" glyph-name="overscore" horiz-adv-x="1120" d="M160 1760Q127 1760 104 1783T80 1840Q80 1873 103 1896T160 1920H960Q993 1920 1016 1897T1040 1840Q1040 1807 1017 1784T960 1760H160Z" />
<glyph unicode="&#xb0;" glyph-name="degree" horiz-adv-x="960" d="M880 1200Q880 1034 763 917T480 800Q314 800 197 917T80 1200Q80 1366 197 1483T480 1600Q646 1600 763 1483T880 1200ZM480 1440Q381 1440 311 1370T240 1200Q240 1101 310 1031T480 960Q579
960 649 1030T720 1200Q720 1299 650 1369T480 1440Z" />
<glyph unicode="&#xb1;" glyph-name="plusminus" horiz-adv-x="1120" d="M480 1200Q480 1233 503 1256T560 1280Q593 1280 616 1257T640 1200V880H960Q993 880 1016 857T1040 800Q1040 767 1017 744T960 720H640V400Q640 367 617 344T560 320Q527 320 504 343T480
400V720H160Q127 720 104 743T80 800Q80 833 103 856T160 880H480V1200ZM160 0Q127 0 104 23T80 80Q80 113 103 136T160 160H960Q993 160 1016 137T1040 80Q1040 47 1017 24T960 0H160Z" />
<glyph unicode="&#xb2;" glyph-name="uni00B2" horiz-adv-x="640" d="M516 887Q532 887 543 876T555 848Q555 831 544 820T516 808H120Q103 808 92 819T80 848Q80 864 91 876L429 1250Q476 1297 476 1362Q476 1428 430 1474T318 1521Q252 1521 206 1475T159 1362Q159
1346 148 1335T120 1323Q103 1323 92 1334T80 1362Q80 1461 149 1530T318 1600Q416 1600 485 1531T555 1362Q555 1264 485 1194L209 887H516Z" />
<glyph unicode="&#xb3;" glyph-name="uni00B3" horiz-adv-x="640" d="M320 1201Q303 1201 292 1212T280 1241Q280 1257 291 1269T320 1281Q369 1281 404 1316T439 1400Q439 1450 404 1485T320 1520Q270 1520 235 1485T200 1400Q200 1384 188 1373T160 1361Q143
1361 132 1372T120 1400Q120 1483 178 1541T320 1600Q402 1600 460 1542T519 1400Q519 1308 446 1245Q469 1231 489 1211Q559 1140 559 1041Q559 942 489 872T320 802Q220 802 150 872T80 1041Q80 1058 91 1069T120 1081Q136 1081 148 1070T160 1041Q160 975 206
929T320 882Q386 882 432 928T479 1041Q479 1108 433 1154T320 1201Z" />
<glyph unicode="&#xb4;" glyph-name="acute" horiz-adv-x="560" d="M458 1464L215 1221Q192 1200 160 1200Q127 1200 104 1223T80 1280Q80 1311 100 1334L343 1577Q367 1600 400 1600Q433 1600 456 1577T480 1520Q480 1488 458 1464Z" />
<glyph unicode="&#xb5;" glyph-name="mu" horiz-adv-x="1200" d="M240 520Q240 371 345 266T600 160Q749 160 854 265T960 520V1040Q960 1073 983 1096T1040 1120Q1073 1120 1096 1097T1120 1040V80Q1120 47 1097 24T1040 0Q1007 0 984 23T960 80V145Q810 0 600
0Q390 0 240 145V-400Q240 -433 217 -456T160 -480Q127 -480 104 -457T80 -400V1040Q80 1073 103 1096T160 1120Q193 1120 216 1097T240 1040V520Z" />
<glyph unicode="&#xb6;" glyph-name="paragraph" horiz-adv-x="1120" d="M960 80Q960 47 937 24T880 0Q847 0 824 23T800 80V1440H640V80Q640 47 617 24T560 0Q527 0 504 23T480 80V800Q314 800 197 917T80 1200Q80 1366 197 1483T480 1600H960Q993 1600 1016
1577T1040 1520Q1040 1487 1017 1464T960 1440V80Z" />
<glyph unicode="&#xb7;" glyph-name="middot" horiz-adv-x="400" d="M320 760Q320 710 285 675T200 640Q150 640 115 675T80 760Q80 810 115 845T200 880Q250 880 285 845T320 760Z" />
<glyph unicode="&#xb8;" glyph-name="cedilla" horiz-adv-x="640" d="M304 57Q327 80 360 80Q393 80 416 57T440 0Q440 -10 438 -19L421 -79Q458 -94 490 -120Q560 -181 560 -270Q560 -359 490 -419T320 -480Q261 -480 206 -451L115 -397Q80 -368 80 -330Q80 -297
103 -274T160 -250Q184 -250 203 -262L281 -310Q300 -320 320 -320Q353 -320 376 -307T400 -270Q400 -247 377 -234T320 -220Q287 -220 264 -197T240 -140Q240 -126 244 -114L283 23Q289 42 304 57Z" />
<glyph unicode="&#xb9;" glyph-name="uni00B9" horiz-adv-x="480" d="M319 845Q319 828 307 817T279 805Q263 805 251 816T239 845V1505L175 1484Q168 1481 160 1481Q143 1481 132 1492T120 1521Q120 1537 132 1549Q138 1555 145 1558L265 1598Q271 1600 279 1600Q295
1600 307 1589T319 1560V845Z" />
<glyph unicode="&#xba;" glyph-name="ordmasculine" horiz-adv-x="640" d="M80 1203Q80 1441 178 1542Q236 1600 319 1600Q401 1600 459 1542Q557 1441 557 1203Q557 964 459 863Q401 805 319 805Q236 805 178 863Q80 964 80 1203ZM319 1521Q269 1521 234 1485Q160
1401 160 1203Q160 1004 234 920Q269 885 319 885Q368 885 403 920Q478 1004 478 1203Q478 1401 403 1485Q368 1521 319 1521Z" />
<glyph unicode="&#xbb;" glyph-name="guillemotright" horiz-adv-x="960" d="M880 559Q880 538 868 516L634 49Q628 35 616 24Q593 0 560 0Q527 0 504 23T480 80Q480 98 487 114L710 560L487 1005Q480 1021 480 1039Q480 1072 503 1095T560 1119Q593 1119 616
1096Q628 1084 634 1070L870 598Q880 579 880 559ZM480 559Q480 538 468 516L234 49Q228 35 216 24Q193 0 160 0Q127 0 104 23T80 80Q80 98 87 114L310 560L87 1005Q80 1021 80 1039Q80 1072 103 1095T160 1119Q193 1119 216 1096Q228 1084 234 1070L470 598Q480
579 480 559Z" />
<glyph unicode="&#xbc;" glyph-name="onequarter" horiz-adv-x="1440" d="M1200 1600Q1233 1600 1256 1577T1280 1520Q1280 1496 1268 1477L310 41Q283 0 240 0Q207 0 184 23T160 80Q160 104 172 123L1136 1569Q1157 1600 1200 1600ZM320 688Q320 668 306 654T272
640Q252 640 238 654T224 688V1486L147 1460Q138 1457 128 1457Q108 1457 94 1471T80 1505Q80 1525 94 1539Q102 1546 111 1550L255 1598Q263 1601 272 1601Q292 1601 306 1587T320 1553V688ZM1120 336V758L828 336H1120ZM736 240Q716 240 702 254T688 288Q688
304 697 316L1129 940Q1131 943 1134 946Q1148 960 1168 960Q1188 960 1202 946T1216 912V336H1312Q1332 336 1346 322T1360 288Q1360 268 1346 254T1312 240H1216V48Q1216 28 1202 14T1168 0Q1148 0 1134 14T1120 48V240H736Z" />
<glyph unicode="&#xbd;" glyph-name="onehalf" horiz-adv-x="1600" d="M1200 1600Q1233 1600 1256 1577T1280 1520Q1280 1496 1268 1477L310 41Q283 0 240 0Q207 0 184 23T160 80Q160 104 172 123L1136 1569Q1157 1600 1200 1600ZM320 688Q320 668 306 654T272
640Q252 640 238 654T224 688V1486L147 1460Q138 1457 128 1457Q108 1457 94 1471T80 1505Q80 1525 94 1539Q102 1546 111 1550L255 1598Q263 1601 272 1601Q292 1601 306 1587T320 1553V688ZM1472 96Q1491 96 1505 82T1520 48Q1520 28 1506 14T1472 0H991Q971
0 957 14T943 48Q943 68 957 82L1367 536Q1424 593 1424 673Q1424 753 1368 809T1231 865Q1151 865 1095 809T1039 673Q1039 653 1025 639T991 625Q971 625 957 639T943 673Q943 792 1027 876T1231 961Q1351 961 1435 877T1520 673Q1520 553 1435 468L1100 96H1472Z"
/>
<glyph unicode="&#xbe;" glyph-name="threequarters" horiz-adv-x="1600" d="M1360 1600Q1393 1600 1416 1577T1440 1520Q1440 1496 1428 1477L470 41Q443 0 400 0Q367 0 344 23T320 80Q320 104 332 123L1296 1569Q1317 1600 1360 1600ZM1280 336V758L988 336H1280ZM896
240Q876 240 862 254T848 288Q848 304 857 316L1289 940Q1291 943 1294 946Q1308 960 1328 960Q1348 960 1362 946T1376 912V336H1472Q1492 336 1506 322T1520 288Q1520 268 1506 254T1472 240H1376V48Q1376 28 1362 14T1328 0Q1308 0 1294 14T1280 48V240H896ZM367
1119Q347 1119 333 1133T319 1167Q319 1186 333 1200T367 1214Q426 1214 468 1256T511 1358Q511 1417 469 1459T367 1501Q308 1501 266 1459T224 1358Q224 1338 210 1324T176 1310Q156 1310 142 1324T128 1358Q128 1457 198 1527T367 1597Q466 1597 536 1527T606
1358Q606 1259 536 1189Q527 1180 518 1172Q546 1155 570 1131Q654 1046 654 927Q654 808 570 724T367 640Q248 640 164 724T80 927Q80 947 94 961T128 975Q148 975 162 961T176 927Q176 848 231 792T367 736Q447 736 502 792T558 927Q558 1007 503 1063T367 1119Z"
/>
<glyph unicode="&#xbf;" glyph-name="questiondown" horiz-adv-x="1120" d="M560 -320Q693 -320 786 -227T880 0Q880 133 786 227L621 380Q480 521 480 720Q480 753 503 776T560 800Q593 800 616 777T640 720Q640 587 734 493L899 340Q1040 199 1040 0Q1040 -199
900 -339T560 -480Q361 -480 221 -340T80 0Q80 33 103 56T160 80Q193 80 216 57T240 0Q240 -133 333 -226T560 -320ZM560 879Q510 879 475 914T440 999Q440 1049 475 1084T560 1119Q610 1119 645 1084T680 999Q680 949 645 914T560 879Z" />
<glyph unicode="&#xc0;" glyph-name="Agrave" horiz-adv-x="1440" d="M433 560L234 49Q228 35 217 23Q193 0 160 0Q127 0 104 23T80 80Q80 99 87 114L643 1544Q649 1562 664 1577Q687 1600 720 1600Q753 1600 777 1577Q791 1562 797 1544L1353 114Q1360 99 1360
80Q1360 47 1337 24T1280 0Q1247 0 1224 23Q1212 35 1206 49L1007 560H433ZM945 720L720 1299L495 720H945ZM453 2000Q453 2033 476 2056T533 2080Q566 2080 590 2057L833 1814Q853 1791 853 1760Q853 1727 830 1704T773 1680Q741 1680 718 1701L475 1944Q453 1968
453 2000Z" />
<glyph unicode="&#xc1;" glyph-name="Aacute" horiz-adv-x="1440" d="M433 560L234 49Q228 35 217 23Q193 0 160 0Q127 0 104 23T80 80Q80 99 87 114L643 1544Q649 1562 664 1577Q687 1600 720 1600Q753 1600 777 1577Q791 1562 797 1544L1353 114Q1360 99 1360
80Q1360 47 1337 24T1280 0Q1247 0 1224 23Q1212 35 1206 49L1007 560H433ZM945 720L720 1299L495 720H945ZM965 1944L722 1701Q699 1680 667 1680Q634 1680 611 1703T587 1760Q587 1791 607 1814L850 2057Q874 2080 907 2080Q940 2080 963 2057T987 2000Q987 1968
965 1944Z" />
<glyph unicode="&#xc2;" glyph-name="Acircumflex" horiz-adv-x="1440" d="M433 560L234 49Q228 35 217 23Q193 0 160 0Q127 0 104 23T80 80Q80 99 87 114L643 1544Q649 1562 664 1577Q687 1600 720 1600Q753 1600 777 1577Q791 1562 797 1544L1353 114Q1360 99
1360 80Q1360 47 1337 24T1280 0Q1247 0 1224 23Q1212 35 1206 49L1007 560H433ZM945 720L720 1299L495 720H945ZM761 2029L1000 1870Q1040 1840 1040 1800Q1040 1767 1017 1744T960 1720Q931 1720 910 1737L720 1863L530 1737Q509 1720 480 1720Q447 1720 424
1743T400 1800Q400 1840 440 1870L679 2029Q697 2040 720 2040Q743 2040 761 2029Z" />
<glyph unicode="&#xc3;" glyph-name="Atilde" horiz-adv-x="1440" d="M433 560L234 49Q228 35 217 23Q193 0 160 0Q127 0 104 23T80 80Q80 99 87 114L643 1544Q649 1562 664 1577Q687 1600 720 1600Q753 1600 777 1577Q791 1562 797 1544L1353 114Q1360 99 1360
80Q1360 47 1337 24T1280 0Q1247 0 1224 23Q1212 35 1206 49L1007 560H433ZM945 720L720 1299L495 720H945ZM769 1801Q679 1721 557 1721Q424 1721 330 1815Q308 1839 308 1871Q308 1904 331 1927T388 1951Q420 1951 444 1929Q491 1881 557 1881Q613 1881 657 1916Q746
1996 869 1996Q1002 1996 1096 1902Q1118 1878 1118 1846Q1118 1813 1095 1790T1038 1766Q1006 1766 982 1788Q935 1836 869 1836Q812 1836 769 1801Z" />
<glyph unicode="&#xc4;" glyph-name="Adieresis" horiz-adv-x="1440" d="M433 560L234 49Q228 35 217 23Q193 0 160 0Q127 0 104 23T80 80Q80 99 87 114L643 1544Q649 1562 664 1577Q687 1600 720 1600Q753 1600 777 1577Q791 1562 797 1544L1353 114Q1360 99
1360 80Q1360 47 1337 24T1280 0Q1247 0 1224 23Q1212 35 1206 49L1007 560H433ZM945 720L720 1299L495 720H945ZM580 1840Q580 1799 551 1770T480 1740Q439 1740 410 1769T380 1840Q380 1881 409 1910T480 1940Q521 1940 550 1911T580 1840ZM1060 1840Q1060 1799
1031 1770T960 1740Q919 1740 890 1769T860 1840Q860 1881 889 1910T960 1940Q1001 1940 1030 1911T1060 1840Z" />
<glyph unicode="&#xc5;" glyph-name="Aring" horiz-adv-x="1440" d="M433 560L234 49Q228 35 217 23Q193 0 160 0Q127 0 104 23T80 80Q80 99 87 114L643 1544Q649 1562 664 1577Q687 1600 720 1600Q753 1600 777 1577Q791 1562 797 1544L1353 114Q1360 99 1360
80Q1360 47 1337 24T1280 0Q1247 0 1224 23Q1212 35 1206 49L1007 560H433ZM945 720L720 1299L495 720H945ZM921 1879Q921 1795 862 1736T720 1677Q636 1677 577 1736T518 1879Q518 1962 577 2021T720 2080Q803 2080 862 2021T921 1879ZM720 1979Q678 1979 649
1950T619 1879Q619 1837 648 1808T720 1778Q761 1778 790 1807T820 1879Q820 1920 791 1949T720 1979Z" />
<glyph unicode="&#xc6;" glyph-name="AE" horiz-adv-x="1760" d="M880 1210L652 800H880V1210ZM1600 1600Q1633 1600 1656 1577T1680 1520Q1680 1487 1657 1464T1600 1440H1040V800H1440Q1473 800 1496 777T1520 720Q1520 687 1497 664T1440 640H1040V160H1600Q1633
160 1656 137T1680 80Q1680 47 1657 24T1600 0H960Q927 0 904 23T880 80V640H563L228 37Q203 0 160 0Q127 0 104 23T80 80Q80 102 90 119L892 1563Q915 1600 960 1600H1600Z" />
<glyph unicode="&#xc7;" glyph-name="Ccedilla" horiz-adv-x="1480" d="M1326 314Q1359 314 1382 291T1406 234Q1406 201 1383 178Q1160 0 880 0Q549 0 315 234T80 800Q80 1131 314 1365T880 1600Q1166 1600 1389 1417Q1412 1393 1412 1360Q1412 1327 1389 1304T1332
1280Q1299 1280 1275 1304Q1106 1440 880 1440Q615 1440 428 1253T240 800Q240 535 427 348T880 160Q1109 160 1280 300Q1300 314 1326 314ZM730 57Q753 80 786 80Q819 80 842 57T866 0Q866 -10 864 -19L847 -79Q884 -94 916 -120Q986 -181 986 -270Q986 -359 916
-419T746 -480Q687 -480 632 -451L541 -397Q506 -368 506 -330Q506 -297 529 -274T586 -250Q610 -250 629 -262L707 -310Q726 -320 746 -320Q779 -320 802 -307T826 -270Q826 -247 803 -234T746 -220Q713 -220 690 -197T666 -140Q666 -126 670 -114L709 23Q715
42 730 57Z" />
<glyph unicode="&#xc8;" glyph-name="Egrave" horiz-adv-x="1280" d="M161 1600H1121Q1154 1600 1177 1577T1201 1520Q1201 1487 1178 1464T1121 1440H241V880H881Q914 880 937 857T961 800Q961 767 938 744T881 720H241V160H1121Q1154 160 1177 137T1201 80Q1201
47 1178 24T1121 0H161Q128 0 105 23T81 80V1520Q81 1553 104 1576T161 1600ZM375 2000Q375 2033 398 2056T455 2080Q488 2080 512 2057L755 1814Q775 1791 775 1760Q775 1727 752 1704T695 1680Q663 1680 640 1701L397 1944Q375 1968 375 2000Z" />
<glyph unicode="&#xc9;" glyph-name="Eacute" horiz-adv-x="1280" d="M161 1600H1121Q1154 1600 1177 1577T1201 1520Q1201 1487 1178 1464T1121 1440H241V880H881Q914 880 937 857T961 800Q961 767 938 744T881 720H241V160H1121Q1154 160 1177 137T1201 80Q1201
47 1178 24T1121 0H161Q128 0 105 23T81 80V1520Q81 1553 104 1576T161 1600ZM887 1944L644 1701Q621 1680 589 1680Q556 1680 533 1703T509 1760Q509 1791 529 1814L772 2057Q796 2080 829 2080Q862 2080 885 2057T909 2000Q909 1968 887 1944Z" />
<glyph unicode="&#xca;" glyph-name="Ecircumflex" horiz-adv-x="1280" d="M161 1600H1121Q1154 1600 1177 1577T1201 1520Q1201 1487 1178 1464T1121 1440H241V880H881Q914 880 937 857T961 800Q961 767 938 744T881 720H241V160H1121Q1154 160 1177 137T1201
80Q1201 47 1178 24T1121 0H161Q128 0 105 23T81 80V1520Q81 1553 104 1576T161 1600ZM681 2029L920 1870Q960 1840 960 1800Q960 1767 937 1744T880 1720Q851 1720 830 1737L640 1863L450 1737Q429 1720 400 1720Q367 1720 344 1743T320 1800Q320 1840 360 1870L599
2029Q617 2040 640 2040Q663 2040 681 2029Z" />
<glyph unicode="&#xcb;" glyph-name="Edieresis" horiz-adv-x="1280" d="M161 1600H1121Q1154 1600 1177 1577T1201 1520Q1201 1487 1178 1464T1121 1440H241V880H881Q914 880 937 857T961 800Q961 767 938 744T881 720H241V160H1121Q1154 160 1177 137T1201 80Q1201
47 1178 24T1121 0H161Q128 0 105 23T81 80V1520Q81 1553 104 1576T161 1600ZM502 1840Q502 1799 473 1770T402 1740Q361 1740 332 1769T302 1840Q302 1881 331 1910T402 1940Q443 1940 472 1911T502 1840ZM982 1840Q982 1799 953 1770T882 1740Q841 1740 812 1769T782
1840Q782 1881 811 1910T882 1940Q923 1940 952 1911T982 1840Z" />
<glyph unicode="&#xcc;" glyph-name="Igrave" horiz-adv-x="480" d="M160 1520Q160 1553 183 1576T240 1600Q273 1600 296 1577T320 1520V80Q320 47 297 24T240 0Q207 0 184 23T160 80V1520ZM-26 2000Q-26 2033 -3 2056T54 2080Q87 2080 111 2057L354 1814Q374
1791 374 1760Q374 1727 351 1704T294 1680Q262 1680 239 1701L-4 1944Q-26 1968 -26 2000Z" />
<glyph unicode="&#xcd;" glyph-name="Iacute" horiz-adv-x="480" d="M160 1520Q160 1553 183 1576T240 1600Q273 1600 296 1577T320 1520V80Q320 47 297 24T240 0Q207 0 184 23T160 80V1520ZM485 1944L242 1701Q219 1680 187 1680Q154 1680 131 1703T107 1760Q107
1791 127 1814L370 2057Q394 2080 427 2080Q460 2080 483 2057T507 2000Q507 1968 485 1944Z" />
<glyph unicode="&#xce;" glyph-name="Icircumflex" horiz-adv-x="480" d="M160 1520Q160 1553 183 1576T240 1600Q273 1600 296 1577T320 1520V80Q320 47 297 24T240 0Q207 0 184 23T160 80V1520ZM282 2029L521 1870Q561 1840 561 1800Q561 1767 538 1744T481
1720Q452 1720 431 1737L241 1863L51 1737Q30 1720 1 1720Q-32 1720 -55 1743T-79 1800Q-79 1840 -39 1870L200 2029Q218 2040 241 2040Q264 2040 282 2029Z" />
<glyph unicode="&#xcf;" glyph-name="Idieresis" horiz-adv-x="480" d="M160 1520Q160 1553 183 1576T240 1600Q273 1600 296 1577T320 1520V80Q320 47 297 24T240 0Q207 0 184 23T160 80V1520ZM101 1840Q101 1799 72 1770T1 1740Q-40 1740 -69 1769T-99 1840Q-99
1881 -70 1910T1 1940Q42 1940 71 1911T101 1840ZM581 1840Q581 1799 552 1770T481 1740Q440 1740 411 1769T381 1840Q381 1881 410 1910T481 1940Q522 1940 551 1911T581 1840Z" />
<glyph unicode="&#xd0;" glyph-name="Eth" horiz-adv-x="1520" d="M239 880V1520Q239 1553 262 1576T319 1600H639Q970 1600 1204 1366T1439 800Q1439 469 1205 235T639 0H319Q286 0 263 23T239 80V720H80Q47 720 24 743T0 800Q0 833 23 856T80 880H239ZM399 880H719Q752
880 775 857T799 800Q799 767 776 744T719 720H399V160H639Q904 160 1091 347T1279 800Q1279 1065 1092 1252T639 1440H399V880Z" />
<glyph unicode="&#xd1;" glyph-name="Ntilde" horiz-adv-x="1440" d="M240 80Q240 47 217 24T160 0Q127 0 104 23T80 80V1520Q80 1553 103 1576T160 1600Q196 1600 222 1571L1200 313V1520Q1200 1553 1223 1576T1280 1600Q1313 1600 1336 1577T1360 1520V80Q1360
47 1337 24T1280 0Q1245 0 1220 26L240 1286V80ZM769 1801Q679 1721 557 1721Q424 1721 330 1815Q308 1839 308 1871Q308 1904 331 1927T388 1951Q420 1951 444 1929Q491 1881 557 1881Q613 1881 657 1916Q746 1996 869 1996Q1002 1996 1096 1902Q1118 1878 1118
1846Q1118 1813 1095 1790T1038 1766Q1006 1766 982 1788Q935 1836 869 1836Q812 1836 769 1801Z" />
<glyph unicode="&#xd2;" glyph-name="Ograve" horiz-adv-x="1760" d="M880 1440Q615 1440 428 1253T240 800Q240 535 427 348T880 160Q1145 160 1332 347T1520 800Q1520 1065 1333 1252T880 1440ZM1680 800Q1680 469 1446 235T880 0Q549 0 315 234T80 800Q80 1131
314 1365T880 1600Q1211 1600 1445 1366T1680 800ZM693 2000Q693 2033 716 2056T773 2080Q806 2080 830 2057L1073 1814Q1093 1791 1093 1760Q1093 1727 1070 1704T1013 1680Q981 1680 958 1701L715 1944Q693 1968 693 2000Z" />
<glyph unicode="&#xd3;" glyph-name="Oacute" horiz-adv-x="1760" d="M880 1440Q615 1440 428 1253T240 800Q240 535 427 348T880 160Q1145 160 1332 347T1520 800Q1520 1065 1333 1252T880 1440ZM1680 800Q1680 469 1446 235T880 0Q549 0 315 234T80 800Q80 1131
314 1365T880 1600Q1211 1600 1445 1366T1680 800ZM1055 1944L812 1701Q789 1680 757 1680Q724 1680 701 1703T677 1760Q677 1791 697 1814L940 2057Q964 2080 997 2080Q1030 2080 1053 2057T1077 2000Q1077 1968 1055 1944Z" />
<glyph unicode="&#xd4;" glyph-name="Ocircumflex" horiz-adv-x="1760" d="M880 1440Q615 1440 428 1253T240 800Q240 535 427 348T880 160Q1145 160 1332 347T1520 800Q1520 1065 1333 1252T880 1440ZM1680 800Q1680 469 1446 235T880 0Q549 0 315 234T80 800Q80
1131 314 1365T880 1600Q1211 1600 1445 1366T1680 800ZM921 2029L1160 1870Q1200 1840 1200 1800Q1200 1767 1177 1744T1120 1720Q1091 1720 1070 1737L880 1863L690 1737Q669 1720 640 1720Q607 1720 584 1743T560 1800Q560 1840 600 1870L839 2029Q857 2040
880 2040Q903 2040 921 2029Z" />
<glyph unicode="&#xd5;" glyph-name="Otilde" horiz-adv-x="1760" d="M880 1440Q615 1440 428 1253T240 800Q240 535 427 348T880 160Q1145 160 1332 347T1520 800Q1520 1065 1333 1252T880 1440ZM1680 800Q1680 469 1446 235T880 0Q549 0 315 234T80 800Q80 1131
314 1365T880 1600Q1211 1600 1445 1366T1680 800ZM929 1801Q839 1721 717 1721Q584 1721 490 1815Q468 1839 468 1871Q468 1904 491 1927T548 1951Q580 1951 604 1929Q651 1881 717 1881Q773 1881 817 1916Q906 1996 1029 1996Q1162 1996 1256 1902Q1278 1878
1278 1846Q1278 1813 1255 1790T1198 1766Q1166 1766 1142 1788Q1095 1836 1029 1836Q972 1836 929 1801Z" />
<glyph unicode="&#xd6;" glyph-name="Odieresis" horiz-adv-x="1760" d="M880 1440Q615 1440 428 1253T240 800Q240 535 427 348T880 160Q1145 160 1332 347T1520 800Q1520 1065 1333 1252T880 1440ZM1680 800Q1680 469 1446 235T880 0Q549 0 315 234T80 800Q80
1131 314 1365T880 1600Q1211 1600 1445 1366T1680 800ZM740 1840Q740 1799 711 1770T640 1740Q599 1740 570 1769T540 1840Q540 1881 569 1910T640 1940Q681 1940 710 1911T740 1840ZM1220 1840Q1220 1799 1191 1770T1120 1740Q1079 1740 1050 1769T1020 1840Q1020
1881 1049 1910T1120 1940Q1161 1940 1190 1911T1220 1840Z" />
<glyph unicode="&#xd7;" glyph-name="multiply" horiz-adv-x="960" d="M366 720L102 984Q80 1008 80 1040Q80 1073 103 1096T160 1120Q193 1120 218 1096L480 834L742 1096Q767 1120 800 1120Q833 1120 856 1097T880 1040Q880 1008 858 984L594 720L858 456Q880
432 880 400Q880 367 857 344T800 320Q768 320 745 341L480 606L215 341Q192 320 160 320Q127 320 104 343T80 400Q80 432 102 456L366 720Z" />
<glyph unicode="&#xd8;" glyph-name="Oslash" horiz-adv-x="1760" d="M1500 1306Q1680 1090 1680 800Q1680 469 1446 235T880 0Q590 0 374 180L217 23Q193 0 160 0Q127 0 104 23T80 80Q80 112 101 135L260 294Q80 510 80 800Q80 1131 314 1365T880 1600Q1170 1600
1386 1420L1543 1577Q1567 1600 1600 1600Q1633 1600 1656 1577T1680 1520Q1680 1491 1662 1469L1500 1306ZM374 408L1272 1306Q1104 1440 880 1440Q615 1440 428 1253T240 800Q240 576 374 408ZM1386 1193L488 294Q656 160 880 160Q1145 160 1332 347T1520 800Q1520
1024 1386 1193Z" />
<glyph unicode="&#xd9;" glyph-name="Ugrave" horiz-adv-x="1280" d="M80 1520Q80 1553 103 1576T160 1600Q193 1600 216 1577T240 1520V560Q240 394 357 277T640 160Q806 160 923 277T1040 560V1520Q1040 1553 1063 1576T1120 1600Q1153 1600 1176 1577T1200
1520V560Q1200 328 1036 164T640 0Q408 0 244 164T80 560V1520ZM373 2000Q373 2033 396 2056T453 2080Q486 2080 510 2057L753 1814Q773 1791 773 1760Q773 1727 750 1704T693 1680Q661 1680 638 1701L395 1944Q373 1968 373 2000Z" />
<glyph unicode="&#xda;" glyph-name="Uacute" horiz-adv-x="1280" d="M80 1520Q80 1553 103 1576T160 1600Q193 1600 216 1577T240 1520V560Q240 394 357 277T640 160Q806 160 923 277T1040 560V1520Q1040 1553 1063 1576T1120 1600Q1153 1600 1176 1577T1200
1520V560Q1200 328 1036 164T640 0Q408 0 244 164T80 560V1520ZM885 1944L642 1701Q619 1680 587 1680Q554 1680 531 1703T507 1760Q507 1791 527 1814L770 2057Q794 2080 827 2080Q860 2080 883 2057T907 2000Q907 1968 885 1944Z" />
<glyph unicode="&#xdb;" glyph-name="Ucircumflex" horiz-adv-x="1280" d="M80 1520Q80 1553 103 1576T160 1600Q193 1600 216 1577T240 1520V560Q240 394 357 277T640 160Q806 160 923 277T1040 560V1520Q1040 1553 1063 1576T1120 1600Q1153 1600 1176 1577T1200
1520V560Q1200 328 1036 164T640 0Q408 0 244 164T80 560V1520ZM681 2029L920 1870Q960 1840 960 1800Q960 1767 937 1744T880 1720Q851 1720 830 1737L640 1863L450 1737Q429 1720 400 1720Q367 1720 344 1743T320 1800Q320 1840 360 1870L599 2029Q617 2040 640
2040Q663 2040 681 2029Z" />
<glyph unicode="&#xdc;" glyph-name="Udieresis" horiz-adv-x="1280" d="M80 1520Q80 1553 103 1576T160 1600Q193 1600 216 1577T240 1520V560Q240 394 357 277T640 160Q806 160 923 277T1040 560V1520Q1040 1553 1063 1576T1120 1600Q1153 1600 1176 1577T1200
1520V560Q1200 328 1036 164T640 0Q408 0 244 164T80 560V1520ZM500 1840Q500 1799 471 1770T400 1740Q359 1740 330 1769T300 1840Q300 1881 329 1910T400 1940Q441 1940 470 1911T500 1840ZM980 1840Q980 1799 951 1770T880 1740Q839 1740 810 1769T780 1840Q780
1881 809 1910T880 1940Q921 1940 950 1911T980 1840Z" />
<glyph unicode="&#xdd;" glyph-name="Yacute" horiz-adv-x="1280" d="M720 80Q720 47 697 24T640 0Q607 0 584 23T560 80V776L93 1475Q80 1495 80 1520Q80 1553 103 1576T160 1600Q201 1600 225 1567L640 945L1055 1567Q1079 1600 1120 1600Q1153 1600 1176 1577T1200
1520Q1200 1495 1187 1475L720 776V80ZM885 1944L642 1701Q619 1680 587 1680Q554 1680 531 1703T507 1760Q507 1791 527 1814L770 2057Q794 2080 827 2080Q860 2080 883 2057T907 2000Q907 1968 885 1944Z" />
<glyph unicode="&#xde;" glyph-name="Thorn" horiz-adv-x="1280" d="M80 1520Q80 1553 103 1576T160 1600Q193 1600 216 1577T240 1520V1280H720Q919 1280 1059 1140T1200 800Q1200 601 1060 461T720 320H240V80Q240 47 217 24T160 0Q127 0 104 23T80 80V1520ZM720
480Q853 480 946 573T1040 800Q1040 933 947 1026T720 1120H240V480H720Z" />
<glyph unicode="&#xdf;" glyph-name="germandbls" horiz-adv-x="1120" d="M240 80Q240 47 217 24T160 0Q127 0 104 23T80 80V1200Q80 1366 197 1483Q314 1600 480 1600Q646 1600 763 1483T880 1200Q880 1053 788 945Q763 911 763 867Q763 790 819 759Q875 731
923 683Q1040 566 1040 400Q1040 234 923 117T640 0Q474 0 357 117Q331 143 331 176Q331 209 354 232T411 256Q444 256 471 231Q541 160 640 160Q739 160 809 230T880 400Q880 499 810 570Q781 598 748 617T684 667Q600 750 600 868Q600 975 672 1056Q720 1118
720 1200Q720 1299 650 1369T480 1440Q381 1440 311 1370Q240 1299 240 1200V80Z" />
<glyph unicode="&#xe0;" glyph-name="agrave" horiz-adv-x="1280" d="M640 960Q474 960 357 843T240 560Q240 394 357 277T640 160Q806 160 923 277T1040 560Q1040 726 923 843T640 960ZM1040 168Q872 0 640 0Q408 0 244 164T80 560Q80 792 244 956T640 1120Q872
1120 1036 956T1200 560V80Q1200 47 1177 24T1120 0Q1087 0 1064 23T1040 80V168ZM400 1520Q400 1553 423 1576T480 1600Q513 1600 537 1577L780 1334Q800 1311 800 1280Q800 1247 777 1224T720 1200Q688 1200 665 1221L422 1464Q400 1488 400 1520Z" />
<glyph unicode="&#xe1;" glyph-name="aacute" horiz-adv-x="1280" d="M640 960Q474 960 357 843T240 560Q240 394 357 277T640 160Q806 160 923 277T1040 560Q1040 726 923 843T640 960ZM1040 168Q872 0 640 0Q408 0 244 164T80 560Q80 792 244 956T640 1120Q872
1120 1036 956T1200 560V80Q1200 47 1177 24T1120 0Q1087 0 1064 23T1040 80V168ZM858 1464L615 1221Q592 1200 560 1200Q527 1200 504 1223T480 1280Q480 1311 500 1334L743 1577Q767 1600 800 1600Q833 1600 856 1577T880 1520Q880 1488 858 1464Z" />
<glyph unicode="&#xe2;" glyph-name="acircumflex" horiz-adv-x="1280" d="M640 960Q474 960 357 843T240 560Q240 394 357 277T640 160Q806 160 923 277T1040 560Q1040 726 923 843T640 960ZM1040 168Q872 0 640 0Q408 0 244 164T80 560Q80 792 244 956T640 1120Q872
1120 1036 956T1200 560V80Q1200 47 1177 24T1120 0Q1087 0 1064 23T1040 80V168ZM681 1549L920 1390Q960 1360 960 1320Q960 1287 937 1264T880 1240Q851 1240 830 1257L640 1383L450 1257Q429 1240 400 1240Q367 1240 344 1263T320 1320Q320 1360 360 1390L599
1549Q617 1560 640 1560Q663 1560 681 1549Z" />
<glyph unicode="&#xe3;" glyph-name="atilde" horiz-adv-x="1280" d="M640 960Q474 960 357 843T240 560Q240 394 357 277T640 160Q806 160 923 277T1040 560Q1040 726 923 843T640 960ZM1040 168Q872 0 640 0Q408 0 244 164T80 560Q80 792 244 956T640 1120Q872
1120 1036 956T1200 560V80Q1200 47 1177 24T1120 0Q1087 0 1064 23T1040 80V168ZM696 1321Q606 1241 484 1241Q351 1241 257 1335Q235 1359 235 1391Q235 1424 258 1447T315 1471Q347 1471 371 1449Q418 1401 484 1401Q540 1401 584 1436Q673 1516 796 1516Q929
1516 1023 1422Q1045 1398 1045 1366Q1045 1333 1022 1310T965 1286Q933 1286 909 1308Q862 1356 796 1356Q739 1356 696 1321Z" />
<glyph unicode="&#xe4;" glyph-name="adieresis" horiz-adv-x="1280" d="M640 960Q474 960 357 843T240 560Q240 394 357 277T640 160Q806 160 923 277T1040 560Q1040 726 923 843T640 960ZM1040 168Q872 0 640 0Q408 0 244 164T80 560Q80 792 244 956T640 1120Q872
1120 1036 956T1200 560V80Q1200 47 1177 24T1120 0Q1087 0 1064 23T1040 80V168ZM500 1360Q500 1319 471 1290T400 1260Q359 1260 330 1289T300 1360Q300 1401 329 1430T400 1460Q441 1460 470 1431T500 1360ZM980 1360Q980 1319 951 1290T880 1260Q839 1260 810
1289T780 1360Q780 1401 809 1430T880 1460Q921 1460 950 1431T980 1360Z" />
<glyph unicode="&#xe5;" glyph-name="aring" horiz-adv-x="1280" d="M640 960Q474 960 357 843T240 560Q240 394 357 277T640 160Q806 160 923 277T1040 560Q1040 726 923 843T640 960ZM1040 168Q872 0 640 0Q408 0 244 164T80 560Q80 792 244 956T640 1120Q872
1120 1036 956T1200 560V80Q1200 47 1177 24T1120 0Q1087 0 1064 23T1040 80V168ZM842 1399Q842 1315 783 1256T641 1197Q557 1197 498 1256T439 1399Q439 1482 498 1541T641 1600Q724 1600 783 1541T842 1399ZM641 1499Q599 1499 570 1470T540 1399Q540 1357 569
1328T641 1298Q682 1298 711 1327T741 1399Q741 1440 712 1469T641 1499Z" />
<glyph unicode="&#xe6;" glyph-name="ae" horiz-adv-x="2240" d="M640 960Q474 960 357 843T240 560Q240 394 357 277T640 160Q806 160 923 277T1040 560Q1040 726 923 843T640 960ZM1993 640Q1971 755 1883 843Q1766 960 1600 960Q1434 960 1317 843Q1229 755
1207 640H1993ZM1200 168V80Q1200 47 1177 24T1120 0Q1087 0 1064 23T1040 80V168Q872 0 640 0Q408 0 244 164T80 560Q80 792 244 956T640 1120Q872 1120 1036 956Q1085 907 1120 851Q1155 907 1204 956Q1368 1120 1600 1120Q1832 1120 1996 956T2160 560Q2160
527 2137 504T2080 480H1207Q1229 365 1317 277Q1434 160 1600 160Q1750 160 1858 255Q1880 272 1908 272Q1941 272 1964 249T1988 192Q1988 159 1965 135Q1810 0 1600 0Q1368 0 1200 168Z" />
<glyph unicode="&#xe7;" glyph-name="ccedilla" horiz-adv-x="1120" d="M950 274Q983 274 1006 251T1030 194Q1030 161 1005 135Q850 0 640 0Q408 0 244 164T80 560Q80 792 244 956T640 1120Q850 1120 1005 985Q1033 960 1033 923Q1033 890 1010 867T953 843Q924
843 902 861Q790 960 640 960Q474 960 357 843T240 560Q240 394 357 277T640 160Q790 160 901 258Q922 274 950 274ZM541 57Q564 80 597 80Q630 80 653 57T677 0Q677 -10 675 -19L658 -79Q695 -94 727 -120Q797 -181 797 -270Q797 -359 727 -419T557 -480Q498 -480
443 -451L352 -397Q317 -368 317 -330Q317 -297 340 -274T397 -250Q421 -250 440 -262L518 -310Q537 -320 557 -320Q590 -320 613 -307T637 -270Q637 -247 614 -234T557 -220Q524 -220 501 -197T477 -140Q477 -126 481 -114L520 23Q526 42 541 57Z" />
<glyph unicode="&#xe8;" glyph-name="egrave" horiz-adv-x="1280" d="M1033 640Q1011 755 923 843Q806 960 640 960Q474 960 357 843Q269 755 247 640H1033ZM948 272Q981 272 1004 249T1028 192Q1028 159 1005 135Q850 0 640 0Q408 0 244 164T80 560Q80 792 244
956T640 1120Q872 1120 1036 956T1200 560Q1200 527 1177 504T1120 480H247Q269 365 357 277Q474 160 640 160Q790 160 898 255Q920 272 948 272ZM400 1520Q400 1553 423 1576T480 1600Q513 1600 537 1577L780 1334Q800 1311 800 1280Q800 1247 777 1224T720 1200Q688
1200 665 1221L422 1464Q400 1488 400 1520Z" />
<glyph unicode="&#xe9;" glyph-name="eacute" horiz-adv-x="1280" d="M1033 640Q1011 755 923 843Q806 960 640 960Q474 960 357 843Q269 755 247 640H1033ZM948 272Q981 272 1004 249T1028 192Q1028 159 1005 135Q850 0 640 0Q408 0 244 164T80 560Q80 792 244
956T640 1120Q872 1120 1036 956T1200 560Q1200 527 1177 504T1120 480H247Q269 365 357 277Q474 160 640 160Q790 160 898 255Q920 272 948 272ZM858 1464L615 1221Q592 1200 560 1200Q527 1200 504 1223T480 1280Q480 1311 500 1334L743 1577Q767 1600 800 1600Q833
1600 856 1577T880 1520Q880 1488 858 1464Z" />
<glyph unicode="&#xea;" glyph-name="ecircumflex" horiz-adv-x="1280" d="M1033 640Q1011 755 923 843Q806 960 640 960Q474 960 357 843Q269 755 247 640H1033ZM948 272Q981 272 1004 249T1028 192Q1028 159 1005 135Q850 0 640 0Q408 0 244 164T80 560Q80 792
244 956T640 1120Q872 1120 1036 956T1200 560Q1200 527 1177 504T1120 480H247Q269 365 357 277Q474 160 640 160Q790 160 898 255Q920 272 948 272ZM681 1549L920 1390Q960 1360 960 1320Q960 1287 937 1264T880 1240Q851 1240 830 1257L640 1383L450 1257Q429
1240 400 1240Q367 1240 344 1263T320 1320Q320 1360 360 1390L599 1549Q617 1560 640 1560Q663 1560 681 1549Z" />
<glyph unicode="&#xeb;" glyph-name="edieresis" horiz-adv-x="1280" d="M1033 640Q1011 755 923 843Q806 960 640 960Q474 960 357 843Q269 755 247 640H1033ZM948 272Q981 272 1004 249T1028 192Q1028 159 1005 135Q850 0 640 0Q408 0 244 164T80 560Q80 792
244 956T640 1120Q872 1120 1036 956T1200 560Q1200 527 1177 504T1120 480H247Q269 365 357 277Q474 160 640 160Q790 160 898 255Q920 272 948 272ZM500 1360Q500 1319 471 1290T400 1260Q359 1260 330 1289T300 1360Q300 1401 329 1430T400 1460Q441 1460 470
1431T500 1360ZM980 1360Q980 1319 951 1290T880 1260Q839 1260 810 1289T780 1360Q780 1401 809 1430T880 1460Q921 1460 950 1431T980 1360Z" />
<glyph unicode="&#xec;" glyph-name="igrave" horiz-adv-x="480" d="M160 1040Q160 1073 183 1096T240 1120Q273 1120 296 1097T320 1040V80Q320 47 297 24T240 0Q207 0 184 23T160 80V1040ZM257 1520Q257 1553 280 1576T337 1600Q370 1600 394 1577L637 1334Q657
1311 657 1280Q657 1247 634 1224T577 1200Q545 1200 522 1221L279 1464Q257 1488 257 1520Z" />
<glyph unicode="&#xed;" glyph-name="iacute" horiz-adv-x="480" d="M160 1040Q160 1073 183 1096T240 1120Q273 1120 296 1097T320 1040V80Q320 47 297 24T240 0Q207 0 184 23T160 80V1040ZM460 1464L217 1221Q194 1200 162 1200Q129 1200 106 1223T82 1280Q82
1311 102 1334L345 1577Q369 1600 402 1600Q435 1600 458 1577T482 1520Q482 1488 460 1464Z" />
<glyph unicode="&#xee;" glyph-name="icircumflex" horiz-adv-x="560" d="M201 1040Q201 1073 224 1096T281 1120Q314 1120 337 1097T361 1040V80Q361 47 338 24T281 0Q248 0 225 23T201 80V1040ZM578 1549L817 1390Q857 1360 857 1320Q857 1287 834 1264T777
1240Q748 1240 727 1257L537 1383L347 1257Q326 1240 297 1240Q264 1240 241 1263T217 1320Q217 1360 257 1390L496 1549Q514 1560 537 1560Q560 1560 578 1549Z" />
<glyph unicode="&#xef;" glyph-name="idieresis" horiz-adv-x="600" d="M220 1040Q220 1073 243 1096T300 1120Q333 1120 356 1097T380 1040V80Q380 47 357 24T300 0Q267 0 244 23T220 80V1040ZM162 1360Q162 1319 133 1290T62 1260Q21 1260 -8 1289T-38 1360Q-38
1401 -9 1430T62 1460Q103 1460 132 1431T162 1360ZM642 1360Q642 1319 613 1290T542 1260Q501 1260 472 1289T442 1360Q442 1401 471 1430T542 1460Q583 1460 612 1431T642 1360Z" />
<glyph unicode="&#xf0;" glyph-name="eth" horiz-adv-x="1280" d="M640 960Q474 960 357 843T240 560Q240 394 357 277T640 160Q806 160 923 277T1040 560Q1040 726 923 843T640 960ZM606 1418L572 1476Q560 1498 560 1520Q560 1553 583 1576T640 1600Q686 1600
708 1563L745 1500L881 1579Q909 1596 941 1588T990 1551Q1007 1522 999 1490T962 1441L825 1361L1133 829Q1200 708 1200 560Q1200 328 1036 164T640 0Q408 0 244 164T80 560Q80 792 244 956T640 1120Q719 1120 790 1101L686 1280L547 1199Q519 1182 487 1190T438
1227Q421 1256 429 1288T466 1337L606 1418Z" />
<glyph unicode="&#xf1;" glyph-name="ntilde" horiz-adv-x="1200" d="M80 1040Q80 1073 103 1096T160 1120Q193 1120 216 1097T240 1040V975Q390 1120 600 1120Q815 1120 967 968T1120 600V80Q1120 47 1097 24T1040 0Q1007 0 984 23T960 80V600Q960 749 855 854T600
960Q451 960 346 855T240 600V80Q240 47 217 24T160 0Q127 0 104 23T80 80V1040ZM661 1321Q571 1241 449 1241Q316 1241 222 1335Q200 1359 200 1391Q200 1424 223 1447T280 1471Q312 1471 336 1449Q383 1401 449 1401Q505 1401 549 1436Q638 1516 761 1516Q894
1516 988 1422Q1010 1398 1010 1366Q1010 1333 987 1310T930 1286Q898 1286 874 1308Q827 1356 761 1356Q704 1356 661 1321Z" />
<glyph unicode="&#xf2;" glyph-name="ograve" horiz-adv-x="1280" d="M1200 560Q1200 328 1036 164T640 0Q408 0 244 164T80 560Q80 792 244 956T640 1120Q872 1120 1036 956T1200 560ZM640 960Q474 960 357 843T240 560Q240 394 357 277T640 160Q806 160 923
277T1040 560Q1040 726 923 843T640 960ZM400 1520Q400 1553 423 1576T480 1600Q513 1600 537 1577L780 1334Q800 1311 800 1280Q800 1247 777 1224T720 1200Q688 1200 665 1221L422 1464Q400 1488 400 1520Z" />
<glyph unicode="&#xf3;" glyph-name="oacute" horiz-adv-x="1280" d="M1200 560Q1200 328 1036 164T640 0Q408 0 244 164T80 560Q80 792 244 956T640 1120Q872 1120 1036 956T1200 560ZM640 960Q474 960 357 843T240 560Q240 394 357 277T640 160Q806 160 923
277T1040 560Q1040 726 923 843T640 960ZM858 1464L615 1221Q592 1200 560 1200Q527 1200 504 1223T480 1280Q480 1311 500 1334L743 1577Q767 1600 800 1600Q833 1600 856 1577T880 1520Q880 1488 858 1464Z" />
<glyph unicode="&#xf4;" glyph-name="ocircumflex" horiz-adv-x="1280" d="M1200 560Q1200 328 1036 164T640 0Q408 0 244 164T80 560Q80 792 244 956T640 1120Q872 1120 1036 956T1200 560ZM640 960Q474 960 357 843T240 560Q240 394 357 277T640 160Q806 160
923 277T1040 560Q1040 726 923 843T640 960ZM681 1549L920 1390Q960 1360 960 1320Q960 1287 937 1264T880 1240Q851 1240 830 1257L640 1383L450 1257Q429 1240 400 1240Q367 1240 344 1263T320 1320Q320 1360 360 1390L599 1549Q617 1560 640 1560Q663 1560
681 1549Z" />
<glyph unicode="&#xf5;" glyph-name="otilde" horiz-adv-x="1280" d="M1200 560Q1200 328 1036 164T640 0Q408 0 244 164T80 560Q80 792 244 956T640 1120Q872 1120 1036 956T1200 560ZM640 960Q474 960 357 843T240 560Q240 394 357 277T640 160Q806 160 923
277T1040 560Q1040 726 923 843T640 960ZM696 1321Q606 1241 484 1241Q351 1241 257 1335Q235 1359 235 1391Q235 1424 258 1447T315 1471Q347 1471 371 1449Q418 1401 484 1401Q540 1401 584 1436Q673 1516 796 1516Q929 1516 1023 1422Q1045 1398 1045 1366Q1045
1333 1022 1310T965 1286Q933 1286 909 1308Q862 1356 796 1356Q739 1356 696 1321Z" />
<glyph unicode="&#xf6;" glyph-name="odieresis" horiz-adv-x="1280" d="M1200 560Q1200 328 1036 164T640 0Q408 0 244 164T80 560Q80 792 244 956T640 1120Q872 1120 1036 956T1200 560ZM640 960Q474 960 357 843T240 560Q240 394 357 277T640 160Q806 160 923
277T1040 560Q1040 726 923 843T640 960ZM500 1360Q500 1319 471 1290T400 1260Q359 1260 330 1289T300 1360Q300 1401 329 1430T400 1460Q441 1460 470 1431T500 1360ZM980 1360Q980 1319 951 1290T880 1260Q839 1260 810 1289T780 1360Q780 1401 809 1430T880
1460Q921 1460 950 1431T980 1360Z" />
<glyph unicode="&#xf7;" glyph-name="divide" horiz-adv-x="960" d="M580 1020Q580 979 551 950T480 920Q439 920 410 949T380 1020Q380 1061 409 1090T480 1120Q521 1120 550 1091T580 1020ZM160 640Q127 640 104 663T80 720Q80 753 103 776T160 800H800Q833
800 856 777T880 720Q880 687 857 664T800 640H160ZM580 420Q580 379 551 350T480 320Q439 320 410 349T380 420Q380 461 409 490T480 520Q521 520 550 491T580 420Z" />
<glyph unicode="&#xf8;" glyph-name="oslash" horiz-adv-x="1280" d="M861 894Q764 960 640 960Q474 960 357 843T240 560Q240 436 305 339L861 894ZM975 781L419 225Q516 160 640 160Q806 160 923 277T1040 560Q1040 684 975 781ZM976 1009L1061 1094Q1087 1120
1120 1120Q1153 1120 1176 1097T1200 1040Q1200 1008 1178 984L1089 895Q1200 751 1200 560Q1200 328 1036 164T640 0Q449 0 305 111L217 23Q193 0 160 0Q127 0 104 23T80 80Q80 112 102 136L191 225Q80 369 80 560Q80 792 244 956T640 1120Q831 1120 976 1009Z"
/>
<glyph unicode="&#xf9;" glyph-name="ugrave" horiz-adv-x="1200" d="M1120 80Q1120 47 1097 24T1040 0Q1007 0 984 23T960 80V145Q810 0 600 0Q385 0 233 152T80 520V1040Q80 1073 103 1096T160 1120Q193 1120 216 1097T240 1040V520Q240 371 345 266T600 160Q749
160 854 265T960 520V1040Q960 1073 983 1096T1040 1120Q1073 1120 1096 1097T1120 1040V80ZM400 1520Q400 1553 423 1576T480 1600Q513 1600 537 1577L780 1334Q800 1311 800 1280Q800 1247 777 1224T720 1200Q688 1200 665 1221L422 1464Q400 1488 400 1520Z"
/>
<glyph unicode="&#xfa;" glyph-name="uacute" horiz-adv-x="1200" d="M1120 80Q1120 47 1097 24T1040 0Q1007 0 984 23T960 80V145Q810 0 600 0Q385 0 233 152T80 520V1040Q80 1073 103 1096T160 1120Q193 1120 216 1097T240 1040V520Q240 371 345 266T600 160Q749
160 854 265T960 520V1040Q960 1073 983 1096T1040 1120Q1073 1120 1096 1097T1120 1040V80ZM778 1464L535 1221Q512 1200 480 1200Q447 1200 424 1223T400 1280Q400 1311 420 1334L663 1577Q687 1600 720 1600Q753 1600 776 1577T800 1520Q800 1488 778 1464Z"
/>
<glyph unicode="&#xfb;" glyph-name="ucircumflex" horiz-adv-x="1200" d="M1120 80Q1120 47 1097 24T1040 0Q1007 0 984 23T960 80V145Q810 0 600 0Q385 0 233 152T80 520V1040Q80 1073 103 1096T160 1120Q193 1120 216 1097T240 1040V520Q240 371 345 266T600
160Q749 160 854 265T960 520V1040Q960 1073 983 1096T1040 1120Q1073 1120 1096 1097T1120 1040V80ZM641 1549L880 1390Q920 1360 920 1320Q920 1287 897 1264T840 1240Q811 1240 790 1257L600 1383L410 1257Q389 1240 360 1240Q327 1240 304 1263T280 1320Q280
1360 320 1390L559 1549Q577 1560 600 1560Q623 1560 641 1549Z" />
<glyph unicode="&#xfc;" glyph-name="udieresis" horiz-adv-x="1200" d="M1120 80Q1120 47 1097 24T1040 0Q1007 0 984 23T960 80V145Q810 0 600 0Q385 0 233 152T80 520V1040Q80 1073 103 1096T160 1120Q193 1120 216 1097T240 1040V520Q240 371 345 266T600
160Q749 160 854 265T960 520V1040Q960 1073 983 1096T1040 1120Q1073 1120 1096 1097T1120 1040V80ZM460 1360Q460 1319 431 1290T360 1260Q319 1260 290 1289T260 1360Q260 1401 289 1430T360 1460Q401 1460 430 1431T460 1360ZM940 1360Q940 1319 911 1290T840
1260Q799 1260 770 1289T740 1360Q740 1401 769 1430T840 1460Q881 1460 910 1431T940 1360Z" />
<glyph unicode="&#xfd;" glyph-name="yacute" horiz-adv-x="1120" d="M473 81L89 1003Q80 1020 80 1040Q80 1073 103 1096T160 1120Q193 1120 217 1097Q230 1083 236 1067L560 290L884 1067Q890 1083 904 1097Q927 1120 960 1120Q993 1120 1016 1097T1040 1040Q1040
1020 1031 1003L435 -427Q429 -443 416 -456Q392 -480 359 -480Q326 -480 303 -457T279 -400Q279 -380 288 -363L473 81ZM805 1464L562 1221Q539 1200 507 1200Q474 1200 451 1223T427 1280Q427 1311 447 1334L690 1577Q714 1600 747 1600Q780 1600 803 1577T827
1520Q827 1488 805 1464Z" />
<glyph unicode="&#xfe;" glyph-name="thorn" horiz-adv-x="1280" d="M240 562Q240 396 357 279T640 162Q806 162 923 279T1040 562Q1040 728 923 845T640 962Q474 962 357 845T240 562ZM240 954Q408 1122 640 1122Q872 1122 1036 958T1200 562Q1200 330 1036 166T640
2Q408 2 240 170V-400Q240 -433 217 -456T160 -480Q127 -480 104 -457T80 -400V1522Q80 1555 103 1578T160 1602Q193 1602 216 1579T240 1522V954Z" />
<glyph unicode="&#xff;" glyph-name="ydieresis" horiz-adv-x="1120" d="M473 81L89 1003Q80 1020 80 1040Q80 1073 103 1096T160 1120Q193 1120 217 1097Q230 1083 236 1067L560 290L884 1067Q890 1083 904 1097Q927 1120 960 1120Q993 1120 1016 1097T1040 1040Q1040
1020 1031 1003L435 -427Q429 -443 416 -456Q392 -480 359 -480Q326 -480 303 -457T279 -400Q279 -380 288 -363L473 81ZM420 1360Q420 1319 391 1290T320 1260Q279 1260 250 1289T220 1360Q220 1401 249 1430T320 1460Q361 1460 390 1431T420 1360ZM900 1360Q900
1319 871 1290T800 1260Q759 1260 730 1289T700 1360Q700 1401 729 1430T800 1460Q841 1460 870 1431T900 1360Z" />
<glyph unicode="&#x2013;" glyph-name="endash" horiz-adv-x="800" d="M0 480Q-33 480 -56 503T-80 560Q-80 593 -57 616T0 640H800Q833 640 856 617T880 560Q880 527 857 504T800 480H0Z" />
<glyph unicode="&#x2014;" glyph-name="emdash" horiz-adv-x="1920" d="M0 480Q-33 480 -56 503T-80 560Q-80 593 -57 616T0 640H1920Q1953 640 1976 617T2000 560Q2000 527 1977 504T1920 480H0Z" />
<glyph unicode="&#x2018;" glyph-name="quoteleft" horiz-adv-x="480" d="M373 1040Q373 999 344 970T273 940Q211 940 183 998Q120 1110 120 1225Q120 1400 272 1583Q289 1600 314 1600Q338 1600 355 1583T373 1541Q373 1527 368 1515Q270 1278 365 1080Q373
1062 373 1040Z" />
<glyph unicode="&#x2019;" glyph-name="quoteright" horiz-adv-x="480" d="M120 1500Q120 1541 149 1570T220 1600Q282 1600 310 1542Q373 1430 373 1315Q373 1140 221 957Q204 940 179 940Q155 940 138 957T120 999Q120 1013 125 1025Q223 1262 128 1460Q120
1478 120 1500Z" />
<glyph unicode="&#x201a;" glyph-name="quotesinglbase" horiz-adv-x="480" d="M120 219Q120 260 149 289T220 319Q282 319 310 261Q373 149 373 34Q373 -141 221 -324Q204 -341 179 -341Q155 -341 138 -324T120 -282Q120 -268 125 -256Q223 -19 128 179Q120 197
120 219Z" />
<glyph unicode="&#x201c;" glyph-name="quotedblleft" horiz-adv-x="760" d="M333 1042Q333 1001 304 972T233 942Q171 942 143 1000Q80 1112 80 1227Q80 1402 232 1585Q249 1602 274 1602Q298 1602 315 1585T333 1543Q333 1529 328 1517Q230 1280 325 1082Q333
1064 333 1042ZM680 1042Q680 1001 651 972T580 942Q518 942 490 1000Q427 1112 427 1227Q427 1402 579 1585Q596 1602 621 1602Q645 1602 662 1585T680 1543Q680 1529 675 1517Q577 1280 672 1082Q680 1064 680 1042Z" />
<glyph unicode="&#x201d;" glyph-name="quotedblright" horiz-adv-x="760" d="M427 1502Q427 1543 456 1572T527 1602Q589 1602 617 1544Q680 1432 680 1317Q680 1142 528 959Q511 942 486 942Q462 942 445 959T427 1001Q427 1015 432 1027Q530 1264 435 1462Q427
1480 427 1502ZM80 1502Q80 1543 109 1572T180 1602Q242 1602 270 1544Q333 1432 333 1317Q333 1142 181 959Q164 942 139 942Q115 942 98 959T80 1001Q80 1015 85 1027Q183 1264 88 1462Q80 1480 80 1502Z" />
<glyph unicode="&#x201e;" glyph-name="quotedblbase" horiz-adv-x="760" d="M427 220Q427 261 456 290T527 320Q589 320 617 262Q680 150 680 35Q680 -140 528 -323Q511 -340 486 -340Q462 -340 445 -323T427 -281Q427 -267 432 -255Q530 -18 435 180Q427 198
427 220ZM80 220Q80 261 109 290T180 320Q242 320 270 262Q333 150 333 35Q333 -140 181 -323Q164 -340 139 -340Q115 -340 98 -323T80 -281Q80 -267 85 -255Q183 -18 88 180Q80 198 80 220Z" />
<glyph unicode="&#x2022;" glyph-name="bullet" horiz-adv-x="800" d="M640 800Q640 701 570 631T400 560Q301 560 231 630T160 800Q160 899 230 969T400 1040Q499 1040 569 970T640 800Z" />
<glyph unicode="&#x2039;" glyph-name="guilsinglleft" horiz-adv-x="560" d="M90 598L326 1070Q332 1084 344 1096Q367 1119 400 1119Q433 1119 456 1096T480 1039Q480 1021 473 1005L250 560L473 114Q480 98 480 80Q480 47 457 24T400 0Q367 0 344 24Q332 35
326 49L92 516Q80 538 80 559Q80 579 90 598Z" />
<glyph unicode="&#x203a;" glyph-name="guilsinglright" horiz-adv-x="560" d="M480 559Q480 538 468 516L234 49Q228 35 216 24Q193 0 160 0Q127 0 104 23T80 80Q80 98 87 114L310 560L87 1005Q80 1021 80 1039Q80 1072 103 1095T160 1119Q193 1119 216 1096Q228
1084 234 1070L470 598Q480 579 480 559Z" />
</font>
</defs>
</svg>
